<?xml version="1.0" encoding="UTF-8"?>
<svg xmlns="http://www.w3.org/2000/svg" version="1.1" viewBox="0 0 512 512">
  <defs>
    <style>
      .cls-1 {
        stroke: #ffec00;
        stroke-miterlimit: 10;
      }

      .cls-1, .cls-2 {
        fill: #ffec00;
      }
    </style>
  </defs>
  <!-- Generator: Adobe Illustrator 28.7.1, SVG Export Plug-In . SVG Version: 1.2.0 Build 142)  -->
  <g>
    <g id="Layer_1">
      <path class="cls-1" d="M506,233.7c-.2-5.8-2.6-11.1-6.8-15.1,0,0,0,0-.1-.1h0s0,0-.1-.1c0,0,0,0,0,0,0,0-.1-.1-.1-.1-3.3-3-7.4-4.8-11.8-5.4-.9-.1-1.8-.2-2.7-.2s-1.5,0-2.2.1h0c-3.5.4-6.8,1.6-9.8,3.5-2,1.3-3.8,3-5.3,4.9-.4.6-.9,1.2-1.3,1.8-.4.7-5,7.8-11.5,14.5-8,8.3-14.2,11.3-17,11.3s-1.3,0-3-1.3c-7.3-5.4-12.9-20.2-15.2-40.3-2-17.9-.8-33.9-.8-34,.9-10.6-6-20.2-16.3-22.9-1.8-.4-3.6-.7-5.4-.7-8.6,0-16.4,5.1-19.9,13,0,.1-6.6,14.8-16.5,28.9-12.8,18.2-22.2,23-25.7,23s-3.6-1.1-6-3.3c-26.9-36-44.5-78.4-51-122.9-1.6-10.6-10.8-18.6-21.6-18.6s-20,8-21.6,18.6c-6.5,44.5-24.1,86.9-51,122.9-2.4,2.2-4.4,3.3-6,3.3-3.6,0-13-4.9-25.8-23.1-9.9-14.1-16.4-28.6-16.5-28.8-3.5-7.8-11.3-12.9-19.9-12.9s-3.6.2-5.4.7c-10.3,2.6-17.2,12.2-16.3,22.8,0,.2,1.2,16.2-.8,34.2-2.3,20.1-7.8,34.8-15.2,40.2-1.7,1.3-2.5,1.3-3,1.3-2.8,0-9-2.9-17-11.3-6.7-7-11.3-14.2-11.5-14.6-4-6.5-10.9-10.3-18.5-10.3s-6,.6-8.8,1.9c-9.9,4.4-15.1,15.6-12.1,25.9l39.6,136.3c.3,1.2.8,2.4,1.3,3.5,5.8,12,17.4,22,35.3,30.5,11.8,5.6,26.4,10.6,43.4,14.9,18.3,4.6,39,8.1,61.5,10.5,23,2.5,47.3,3.8,72.2,3.8s49-1.3,72-3.8c22.4-2.4,43.1-6,61.4-10.5,16.9-4.2,31.5-9.2,43.3-14.8,17.9-8.5,29.5-18.4,35.5-30.2.8-1.5,1.4-3.2,1.8-4.8l31.7-136.3c.4-1.7.6-3.4.6-5.2v-.8h0ZM489.2,234.4c0,.4,0,.9-.2,1.3l-31.7,136.4c-.1.4-.2.8-.4,1.1-9.2,18.4-42,29.8-67.8,36.2-17.6,4.3-37.5,7.7-59.2,10.1-22.4,2.4-46,3.7-70.2,3.7s-47.9-1.2-70.4-3.7c-21.7-2.4-41.7-5.8-59.3-10.1-25.9-6.4-58.7-18-67.7-36.5-.1-.2-.2-.5-.3-.8L22.6,235.8c-.7-2.4.5-4.9,2.8-5.9.6-.3,1.3-.4,2-.4,1.7,0,3.3.9,4.2,2.4,0,.1,5.5,8.8,13.7,17.4,7.2,7.5,18.1,16.4,29.1,16.4s8.8-1.5,13-4.6c14.3-10.6,19.8-34,21.8-51.7,2.3-19.9.9-37.3.9-37.4-.2-2.4,1.4-4.6,3.7-5.2.4-.1.8-.2,1.2-.2h0c1.9,0,3.7,1.1,4.6,3,0,.2,7.1,15.9,18,31.6,9.7,13.8,24.4,30.3,39.6,30.3s12.5-2.9,18.6-8.9c29.1-38.4,48.1-83.9,55.1-131.6.4-2.4,2.5-4.3,4.9-4.3s4.6,1.8,4.9,4.3c7,47.7,26,93.2,55,131.6,6.1,6,12.1,8.9,18.5,8.9,15.1,0,29.8-16.4,39.5-30.2,11-15.6,18.1-31.5,18.1-31.7.8-1.8,2.6-3,4.5-3s.8,0,1.2.2c2.4.6,3.9,2.8,3.7,5.2,0,.2-1.4,17.4.9,37.3,2,17.8,7.5,41.2,21.8,51.9,4.1,3.1,8.4,4.6,13,4.6,11,0,21.9-8.9,29.1-16.4,7.9-8.2,13.2-16.6,13.7-17.3.1-.2.2-.3.3-.5.4-.4.8-.8,1.2-1.1.6-.4,1.4-.7,2.2-.8.2,0,.3,0,.5,0s.4,0,.6,0c1,.1,2,.6,2.7,1.2h0c.9.9,1.5,2.1,1.6,3.5h0v.2h.1c0,0,0,0,0,0Z"/>
      <path class="cls-2" d="M495.1,236c3.5-4-1.2-11.4-6.1-7.9-.8.6-1.5,1.1-2.2,1.7-.2-.2-.4-.5-.6-.7-1.6-2.9-6.6-3.6-8.9-.2-5.5,8.2-11.1,16.4-16.6,24.6-10.3,1.3-20.2,4.4-29.4,9.1-1.7-.5-3.4-1-5.1-1.5-.2-.3-.5-.6-.7-.9-4.7-5.8-8.8-11.4-12.2-18.1-3.3-6.5-6.3-13.2-9.3-19.9-.1-14.8-.2-29.6-.3-44.3,0-1.9-1.1-3.3-2.6-4.1.3-1.4.5-2.8.8-4.1,1.5-6.4-7.3-8.5-9.6-2.7-7,17.5-19.4,32-32.1,45.7-5.4,5.8-11.6,15-19.9,16.5-9.5,1.8-19.2-5.7-26.1-11.3-9.1-15.2-18.1-30.4-27.2-45.6-1.8-4.2-3.5-8.4-5.1-12.7-8.6-23.8-14.1-48.8-20.7-73.2-.8-2.9-4.7-4.9-7.3-3-4,2.8-5.9,6.5-7.2,11.2-1.6,6.1-2.8,12.3-4.4,18.3-3.2,12.5-6.8,24.9-10.8,37.2-2.6,7.9-5.2,16-8,23.9,0,.2-.2.4-.2.6,0,.1,0,.3-.1.4-.5,1.5-1.1,3-1.7,4.5-3.4,8.3-8.6,15.8-15.2,22-3.6,3.4-8.1,5.7-11.5,9.3-3.1,3.2-4.1,6.9-4.4,10.9-6,4.2-12.7,6-20.7,1.7-10.1-5.4-18.2-14-25.5-22.5-3.6-4.2-7.2-8.5-10.7-12.8-3.8-4.6-9.1-9.3-11.4-14.9-1.6-3.6-1.7-8.1-6.2-9.6-4.7-1.5-8.1,2.4-8.8,6.6-1,6-1.2,12.2-1.8,18.3-.2.3-.4.7-.5,1.1-2.9,7.8-3.1,16.4-3.1,24.8-1.8,10.4-3.9,20.8-6.4,31.1-3.9,1.6-7.8,3.2-11.7,4.9-4,1.7-2.9,6.2,0,8.2-.4.4-.9.8-1.3,1.3-5.2.3-10.4.1-15.6-.6-1.6-.2-3.2.3-4.4,1.2-1.7-2.7-3.8-5.1-6.5-7.2-2-1.5-4-1-5.4.3-.6-1.5-1.2-3-1.8-4.5-.7-3.3-1.4-6.6-2.1-9.9-.8-3.6-5.1-4.3-7.7-2.8-1.3-.8-2.9-.9-4.3-.5-.6-1.9-1.2-3.9-1.9-5.8-2-6.1-11.7-3.5-9.6,2.7,0,0,0,.2,0,.3-.8.6-1.5,1.4-1.9,2.6-1.1,3.1-.6,5.7.6,8.2,1.5,9.7,4.8,18.9,9.9,27.1-.2.8-.3,1.6,0,2.6,3,14.6,7.1,29,12,43.1.3,1,1,1.7,1.7,2.3-1.3.3-2.5.7-3.8,1.4-5.1,2.6-1.5,10.7,3.9,9.1,1.6-.5,3.3-1,4.9-1.4.3.9.5,1.7.8,2.5-.1.5-.2,1-.2,1.7,1.6,19.3,7.7,37.7,18.4,53.9,1.5,2.3,4.1,2.8,6.1,2,1.5,2.7,3.2,5.2,5.1,7.4,4.7,5.4,12.8,6.6,19.3,8.6,31.6,9.6,63.7,17.4,96.1,23.5,3.5.6,5.9-1.8,6.2-4.5,1.3,0,2.6,0,3.9.1,2.6.5,5.2,1,7.7,1.5,11,2,21.9,4,32.9,6,4.2.7,6.8-3.3,6.2-6.4,8.4,0,16.8-.2,25.1-.2,4.7,0,9.4,0,14.1-.1,1.7,0,2.9-.7,3.7-1.8,11.3.5,22.5.4,33.8-.4.8,0,1.6-.3,2.2-.6,1,.6,2.2.9,3.7.6,14.8-2.8,29.4-6.4,43.9-10.6.9,2.7,4.1,4.6,7.3,3,5.3-2.6,10.6-5.3,15.9-7.9.5,3,3.8,5.7,7.5,3.9,3.8-1.9,7.3-4.2,10.5-6.7,2.8-2,5.4-4,8-6.2-.2.6-.4,1.2-.5,1.8-1.4,5.4,6.4,9,9.1,3.9,1.6-3,3.3-6.1,4.9-9.1,2.8-3.2,6.5-5.9,9.7-8.6,5.8-4.9,11.2-10.3,13.2-17.9,1-3.9-2.2-6.4-5.5-6.1.4-.7.7-1.4,1.1-2.1,6.2-12.4,11.4-25.3,12.3-39.2,1.8-.6,3.3-2.1,3.5-4.6.3-5,.6-10,1-15,2-14.4,6.5-28.3,11-42.1.8-2.5-.8-4.9-3-5.9,1-2.6,2-5.1,2.6-7.7,2.4-3,4.9-5.9,7.5-8.8ZM371.8,309.1c.1.3.3.6.4.9-.4-.3-.8-.6-1.2-.8h.7ZM370.5,395.2c-.6,0-1.3,0-1.9,0,.3,0,.6,0,.8-.1.5,0,1.1-.2,1.6-.3-.2.1-.4.2-.5.4ZM396.7,370.9h0c-4.8,1.9-13.9,4.9-30.2,7.7-27.8,4.8-64.9,7.5-104.4,7.5s-76.6-2.7-104.4-7.5c-16.3-2.8-25.4-5.7-30.2-7.7-1.4-.6-2.4-1-3.3-1.5.9-.5,1.9-.9,3.3-1.5,4.8-1.9,13.9-4.9,30.2-7.7,27.8-4.8,64.9-7.5,104.4-7.5s76.6,2.7,104.4,7.5c16.3,2.8,25.4,5.7,30.2,7.7,1.4.6,2.4,1,3.3,1.5-.9.5-1.9.9-3.3,1.5ZM402,278.1c.1-.1.3-.3.4-.4.4.1.9.2,1.3.3-.6,0-1.1,0-1.7.1ZM448.6,291.6c-.4-.3-.9-.5-1.4-.7.5,0,1,0,1.5,0,0,.2,0,.5,0,.7Z"/>
    </g>
  </g>
</svg>