<?xml version="1.0" encoding="UTF-8"?>
<svg width="512pt" height="512pt" version="1.1" viewBox="0 0 512 512" xmlns="http://www.w3.org/2000/svg">
 <path d="m123.9 303.11h-9.7266v1.0234 1.0234h9.7266c0 2.0469-0.51172 4.0977-1.0234 6.1445l-8.7031-3.5859c-0.51172 1.0234-0.51172 1.5352-1.0234 2.5586l8.7031 3.5859c-1.0234 2.0469-2.0469 3.5859-3.5859 5.1211l-7.1641-6.6562c-0.51172 0.51172-1.0234 1.0234-2.0469 1.5352l6.6562 6.6562c-1.5352 1.5352-3.0703 2.5586-5.1211 3.5859l-3.0742-9.2188c-0.51172 0.51172-1.5352 0.51172-2.5586 1.0234l3.5859 9.2148c-2.0469 0.51172-3.5859 1.0234-5.6328 1.0234v-9.7266h-1.0234-1.5352v9.7266c-2.0469 0-4.0977-0.51172-6.1445-1.0234l3.5859-9.2148c-1.0234-0.51172-1.5352-0.51172-2.5586-1.0234l-3.0781 8.707c-1.5352-1.0234-3.5859-2.0469-4.6094-3.0703l7.168-7.168c-0.51172-0.51172-0.51172-0.51172-1.0234-1.0234-0.51172-0.51172-0.51172-0.51172-1.0234-1.0234s-1.0234-1.0234-1.0234-1.5352-0.51172-0.51172-0.51172-1.0234c0-0.51172-0.51172-1.0234-0.51172-1.0234 0-0.51172-0.51172-1.5352-0.51172-2.0469v-1.0234-1.0234c0-0.51172 0-1.5352 0.51172-2.0469 0-0.51172 0-1.0234 0.51172-1.0234 0-0.51172 0.51172-1.0234 0.51172-1.0234 0.51172-0.51172 0.51172-1.0234 1.0234-1.5352 0-0.51172 0.51172-0.51172 1.0234-1.0234 0.51172-0.51172 0.51172-0.51172 1.0234-1.0234s1.0234-1.0234 1.5352-1.0234c0.51172 0 0.51172-0.51172 1.0234-0.51172 0.51172 0 1.0234-0.51172 1.0234-0.51172 0.51172 0 1.5352-0.51172 2.0469-0.51172h0.51172 1.0234 1.0234c1.0234 0 1.5352 0 2.0469 0.51172 0.51172 0 1.0234 0 1.0234 0.51172 0.51172 0 1.0234 0.51172 1.0234 0.51172 0.51172 0.51172 1.5352 0.51172 2.0469 1.0234 0.51172 0 0.51172 0.51172 1.0234 1.0234l1.0234 1.0234 7.168-7.168c1.5352 1.5352 2.5586 3.0703 3.5859 5.1211l-9.207 2.5469c0.51172 0.51172 0.51172 1.5352 1.0234 2.5586l9.2148-4.0938c0.51172 2.0469 1.0234 4.0938 1.0234 6.1445zm294.91 0h-1.0234v1.0234 1.0234h1.0234c0 4.6094-1.0234 9.2148-2.5586 13.824l-1.0234-0.51172c-0.51172 1.0234-0.51172 1.5352-1.0234 2.5586l1.0234 0.51172c-2.0469 4.0977-4.6094 8.1914-7.6797 11.266l-1.0234-1.0234c-0.51172 0.51172-1.0234 1.0234-2.0469 1.5352l1.0234 1.0234c-3.5859 3.0703-7.168 5.6328-11.777 7.6797l-0.51172-1.5352c-1.0234 0.51172-1.5352 0.51172-2.5586 1.0234l0.51172 1.5352c-4.0977 1.5352-8.7031 2.5586-13.312 2.5586v-1.5352h-1.0234-1.5352v1.5352c-4.6094 0-9.2148-1.0234-13.824-2.5586l0.51172-1.5352c-1.0234-0.51172-1.5352-0.51172-2.5586-1.0234l-0.51172 1.5352c-4.0977-2.0469-8.1914-4.6094-11.266-7.6797l1.5352-1.5352c-0.51172-0.51172-1.0234-1.0234-1.5352-2.0469l-1.0273 2.0469c-3.0703-3.5859-5.6328-7.168-7.6797-11.777l2.0469-0.51172c-0.51172-1.0234-0.51172-1.5352-1.0234-2.5586l-2.0469 1.0234c-1.5352-4.0977-2.5586-8.7031-2.5586-13.312h2.0469v-1.0234-1.0234h-2.0469c0-4.6094 1.0234-9.2148 2.5586-13.824l2.0469 1.0234c0.51172-1.0234 0.51172-1.5352 1.0234-2.5586l-2.0469-1.5391c2.0469-4.0977 4.6094-8.1914 7.6797-11.266l1.5352 1.5352c0.51172-0.51172 1.0234-1.0234 1.5352-2.0469l-1.5352-1.0195c3.5859-3.0703 7.168-5.6328 11.777-7.6797l0.51172 1.5352c0.51172-0.51172 1.5352-0.51172 2.5586-1.0234l-0.51172-1.5352c4.0977-1.5352 8.7031-2.5586 13.312-2.5586v1.5352h1.5352 1.0234v-1.5352c4.6094 0 9.2148 1.0234 13.824 2.5586l-0.51172 1.0195c1.0234 0.51172 1.5352 0.51172 2.5586 1.0234v-1.0234c4.0977 2.0469 8.1914 4.6094 11.266 7.6797l-1.0234 1.0234c0.51172 0.51172 1.0234 1.0234 2.0469 1.5352l1.0234-1.0234c3.0703 3.5859 5.6328 7.168 7.6797 11.777l-1.0234 0.51172c0.51172 1.0234 0.51172 1.5352 1.0234 2.5586l1.0234-0.51172c1.5391 4.0977 2.5625 8.707 2.5625 13.316zm-16.895 1.0234c0-6.6562-2.5586-12.801-7.168-17.406l-1.0234-1.0234-7.168 7.168c-1.0234-0.51172-1.5352-1.0234-2.5586-1.5352l4.0977-9.2148c-0.51172-0.51172-1.5352-0.51172-2.5586-1.0234l-4.0977 9.2148c-1.0234-0.51172-2.0469-0.51172-3.0703-0.51172v-10.238h-1.0234-1.5352v10.238c-1.0234 0-2.0469 0.51172-3.0703 0.51172l-3.5859-9.2148c-1.0234 0.51172-1.5352 0.51172-2.5586 1.0234l3.5859 9.2148c-1.0234 0.51172-1.5352 1.0234-2.5586 1.5352l-7.168-7.168c-0.51172 0.51172-1.0234 1.0234-1.5352 2.0469l7.168 7.168c-0.51172 1.0234-1.0234 1.5352-1.5352 2.5586l-9.2148-4.0977c-0.51172 0.51172-0.51172 1.5352-1.0234 2.5586l9.2148 4.0977c-0.51172 1.0234-0.51172 2.0469-0.51172 3.0703h-10.238v1.0234 1.0234h10.238c0 1.0234 0.51172 2.0469 0.51172 3.0703l-9.2305 4.1016c0.51172 1.0234 0.51172 1.5352 1.0234 2.5586l9.2148-3.5859c0.51172 1.0234 1.0234 1.5352 1.5352 2.5586l-7.168 7.168 1.0234 1.0234c4.6094 4.6094 10.238 6.6562 16.383 7.168h1.0234 1.0234c2.5586 0 4.6094-0.51172 6.6562-1.0234 0.51172 0 1.0234-0.51172 1.0234-0.51172h0.51172c0.51172 0 0.51172 0 1.0234-0.51172 2.0469-1.0234 4.0977-2.0469 6.1445-4.0977 0.51172-0.51172 1.0234-1.0234 2.0469-1.5352 1.5352-1.5352 3.0703-3.5859 4.0977-5.6328 0-0.51172 0.51172-1.0234 0.51172-1.5352v-0.51172-0.51172c1.0234-2.5586 1.5352-4.6094 1.5352-7.168 0.007813-1.0195 0.007813-1.5312 0.007813-2.043zm89.086-93.184-18.945 79.359-4.0977 18.434h-45.566v-27.137l-23.039-26.625h-45.055l-23.039 28.672v28.672h-184.32v-26.113l-20.48-29.184h-51.711l-20.48 40.961h-8.1914l-14.848-9.2148-5.1211-1.5352-5.1211-44.031 26.625-6.6562 177.15-70.656h0.51172l264.7 44.031v1.0234zm-443.9 29.184-22.531 5.6328 3.5859 29.695h2.5586l15.871 0.51172v7.6797l0.003906-43.52zm8.7031-3.0742 103.94-6.1445-2.0469-8.1914h-3.0703l-54.273 4.0977 56.32-23.039 3.0703-1.0234 63.488-27.137 84.48 16.383 1.0234 18.434v11.266l169.98-10.238-253.44-41.988zm181.25-9.2148v60.414h68.609l1.5352-64.512zm70.145-6.1445v-11.266l-50.688 4.6094-19.969 1.5352 0.51172 9.7266zm-54.27-8.1914v-30.719l-15.359-3.0703-0.003906 35.324zm-93.188 8.7031 2.0469 8.1914 73.73-4.0938-0.51172-9.2148zm0-1.5352v-16.383l-3.0703 1.0234v15.359zm2.0508 11.777 13.312 55.809h60.414v-60.418zm326.66-18.945-2.5586-0.51172-177.15 10.754-1.5352 66.559h-133.12l-13.824-57.344-109.57 6.1445-2.0469 1.0234v43.008l18.434-37.375h65.535l26.113 37.375v17.922h161.28v-21.504l29.184-36.352h55.809l29.184 34.305-0.003907 9.2109h36.863zm-90.625 83.457-8.7031 3.582c0-1.0234-0.51172-1.5352-1.0234-2.5586l9.2148-3.5859c-1.0234-2.0469-2.0469-3.5859-3.5859-5.1211l-7.168 7.168c-0.51172-0.51172-0.51172-0.51172-1.0234-1.0234-0.51172-0.51172-0.51172-0.51172-1.0234-1.0234-0.51172-0.51172-1.0234-1.0234-2.0469-1.0234-0.51172 0-0.51172-0.51172-1.0234-0.51172-0.51172 0-1.0234-0.51172-1.0234-0.51172-0.51172 0-1.5352-0.51172-2.0469-0.51172h-1.0234-1.0234-0.51172c-0.51172 0-1.5352 0.51172-2.0469 0.51172s-1.0234 0.51172-1.0234 0.51172c-0.51172 0-0.51172 0.51172-1.0234 0.51172-0.51172 0.51172-1.0234 1.0234-1.5352 1.0234-0.51172 0.51172-0.51172 0.51172-1.0234 1.0234-0.51172 0.51172-0.51172 0.51172-1.0234 1.0234-0.51172 0.51172-1.0234 1.0234-1.0234 1.5352s-0.51172 0.51172-0.51172 1.0234c0 0.51172-0.51172 1.0234-0.51172 1.0234 0 0.51172-0.51172 1.5352-0.51172 2.0469v1.0234 1.0234c0 0.51172 0 1.5352 0.51172 2.0469 0 0.51172 0 1.0234 0.51172 1.0234 0 0.51172 0.51172 1.0234 0.51172 1.0234 0.51172 0.51172 0.51172 1.0234 1.0234 1.5352s0.51172 0.51172 1.0234 1.0234c0.51172 0.51172 0.51172 0.51172 1.0234 1.0234l-7.168 7.168c1.5352 1.5352 3.0703 2.5586 4.6094 3.0703l3.5859-9.2148c0.51172 0.51172 1.5352 1.0234 2.5586 1.0234l-3.5859 9.2148c2.0469 0.51172 4.0977 1.0234 6.1445 1.0234v-9.7266h1.5352 1.0234v9.7266c2.0469 0 4.0977-0.51172 5.6328-1.0234l-3.5859-9.2148c1.0234 0 1.5352-0.51172 2.5586-1.0234l3.5859 8.7031c2.0469-1.0234 3.5859-2.0469 5.1211-3.5859l-6.6562-6.6562c0.51172-0.51172 1.5352-1.0234 2.0469-1.5352l6.6562 6.6562c1.5352-1.5352 2.5586-3.0703 3.5859-5.1211l-8.7031-3.5859c0.51172-0.51172 0.51172-1.5352 1.0234-2.5586l8.7031 3.5859c0.51172-2.0469 1.0234-4.0977 1.0234-6.1445h-9.7266v-1.0234-1.0234l9.207 0.011719c0 0.51172-0.51172-1.5352-1.5352-3.582zm-254.46 6.1445h-1.0234v1.0234 1.0234h1.0234c0 4.6094-1.0234 9.2148-2.5586 13.824l-1.0234-0.51172c-0.51172 1.0234-0.51172 1.5352-1.0234 2.5586l1.0234 0.51172c-2.0469 4.0977-4.6094 8.1914-7.6797 11.266l-1.0234-1.0234c-0.51172 0.51172-1.0234 1.0234-2.0469 1.5352l1.0234 1.0234c-3.5859 3.0703-7.168 5.6328-11.777 7.6797l-0.51172-1.5352c-1.0234 0.51172-1.5352 0.51172-2.5586 1.0234l0.51172 1.5352c-4.0977 1.5352-8.7031 2.5586-13.312 2.5586v-1.5352h-1.0234-1.5352v1.5352c-4.6094 0-9.2148-1.0234-13.824-2.5586l0.51172-1.5352c-1.0234-0.51172-1.5352-0.51172-2.5586-1.0234l-0.51172 1.5352c-4.0977-2.0469-8.1914-4.6094-11.266-7.6797l1.5352-1.5352c-0.51172-0.51172-1.0234-1.0234-1.5352-2.0469l-1.0273 2.0469c-3.0703-3.5859-5.6328-7.168-7.6797-11.777l2.0469-0.51172c-0.51172-1.0234-0.51172-1.5352-1.0234-2.5586l-2.0469 0.51172c-1.5352-4.0977-2.5586-8.7031-2.5586-13.312h1.5352v-1.0234-1.0234h-2.0469c0-4.6094 1.0234-9.2148 2.5586-13.824l2.0469 1.0234c0.51172-1.0234 0.51172-1.5352 1.0234-2.5586l-1.5352-1.0273c2.0469-4.0977 4.6094-8.1914 7.6797-11.266l1.5352 1.5352c0.51172-0.51172 1.0234-1.0234 1.5352-2.0469l-1.5352-1.5352c3.5859-3.0703 7.168-5.6328 11.777-7.6797l0.51172 1.5352c0.51172-0.51172 1.5352-0.51172 2.5586-1.0234l-0.51172-1.5352c4.0977-1.5352 8.7031-2.5586 13.312-2.5586v1.5352h1.5352 1.0234v-1.5352c4.6094 0 9.2148 1.0234 13.824 2.5586l-0.51172 1.5352c1.0234 0.51172 1.5352 0.51172 2.5586 1.0234l0.51172-1.5352c4.0977 2.0469 8.1914 4.6094 11.266 7.6797l-1.0234 1.0234c0.51172 0.51172 1.0234 1.0234 2.0469 1.5352l1.0234-1.0234c3.0703 3.5859 5.6328 7.168 7.6797 11.777l-1.0234 0.51172c0.51172 1.0234 0.51172 1.5352 1.0234 2.5586l1.0234-0.51172c1.0273 4.6094 2.0508 9.2188 2.0508 13.828zm-16.895 1.0234c0-6.6562-2.5586-12.801-7.168-17.406-0.51172-0.51172-0.51172-0.51172-1.0234-1.0234l-7.168 7.168c-1.0234-0.51172-1.5352-1.0234-2.5586-1.5352l4.0977-9.2148c-0.51172-0.51172-1.5352-0.51172-2.5586-1.0234l-4.0977 9.2148c-1.0234-0.51172-2.0469-0.51172-3.0703-0.51172v-10.238h-1.0234-1.5352v10.238c-1.0234 0-2.0469 0.51172-3.0703 0.51172l-3.5859-9.2148c-1.0234 0.51172-1.5352 0.51172-2.5586 1.0234l3.5859 9.2148c-1.0234 0.51172-1.5352 1.0234-2.5586 1.5352l-7.168-7.168c-0.51172 0.51172-1.0234 1.0234-1.5352 2.0469l7.168 7.168c-0.51172 1.0234-1.0234 1.5352-1.5352 2.5586l-9.2148-4.0977c-0.51172 0.51172-0.51172 1.5352-1.0234 2.5586l9.2148 4.0977c-0.51172 1.0234-0.51172 2.0469-0.51172 3.0703h-10.238v1.0234 1.0234h10.238c0 1.0234 0.51172 2.0469 0.51172 3.0703l-9.2305 4.1016c0.51172 1.0234 0.51172 1.5352 1.0234 2.5586l9.2148-3.5859c0.51172 1.0234 1.0234 1.5352 1.5352 2.5586l-7.168 7.168c0.51172 0.51172 0.51172 0.51172 1.0234 1.0234 4.6094 4.6094 10.238 6.6562 16.383 7.168h1.0234 1.0234c2.5586 0 4.6094-0.51172 6.6562-1.0234 0.51172 0 1.0234-0.51172 1.0234-0.51172h0.51172c0.51172 0 0.51172 0 1.0234-0.51172 2.0469-1.0234 4.0977-2.0469 6.1445-4.0977 0.51172-0.51172 1.0234-1.0234 2.0469-1.5352 1.5352-1.5352 3.0703-3.5859 4.0977-5.6328 0-0.51172 0.51172-1.0234 0.51172-1.5352v-0.51172-0.51172c1.0234-2.5586 1.5352-4.6094 1.5352-7.168 0.007813-1.0195 0.007813-1.5312 0.007813-2.043z"/>
</svg>
