<?xml version="1.0" encoding="UTF-8"?>
<svg width="512pt" height="512pt" version="1.1" viewBox="0 0 512 512" xmlns="http://www.w3.org/2000/svg">
 <path d="m284.96 205.59v0.023437c-2.6562 0-5.3164 0.027344-7.9844 0.09375h-0.007812c-25.082 1.0352-42.141 5.7422-56.25 11.633-4.2188 1.6484-9.1289 3.6914-16.035 6.7383-5.5703 2.457-12.184 6.1641-20.305 10.625l-1.7461 0.59375-3.9805 0.88672-3.1797-0.52734-0.082031 0.03125c-10.812 2.7305-24.836 5.6992-37.082 9.0234-6.1211 1.6602-11.789 3.4102-16.406 5.2656-4.6172 1.8516-8.1797 3.7969-10.09 5.9453l-0.09375 0.10547-0.007812 0.13672c-0.015626 0.36328-0.14453 0.91406-0.13672 1.4062 0.003906 0.24609 0.023437 0.52344 0.25 0.75h0.0625c-0.14453 0.16016-0.32031 0.30469-0.31641 0.60938 0.03125 1.832 0.4375 4.2422 0.82031 6.3672 0.19141 1.0625 0.375 2.0508 0.49609 2.8477 0.125 0.79688 0.17969 1.4336 0.15234 1.6367-0.13281 0.98828-0.5625 1.6719-1.0273 2.375-0.46484 0.70312-0.98047 1.4414-1.082 2.4492-0.19141 1.8633 0.41406 4.4102 1.0469 6.543 0.62891 2.1328 1.3047 3.8359 1.3047 3.8359l0.070312 0.18359 0.1875 0.050781c0.12891 0.035156 0.25781 0.0625 0.38281 0.09375 0.82812 1.4062 2.0781 2.7031 3.0117 3.6719 5.457 1.6289 15.375 2.4141 16.367 4.8789l1.1602 0.15234 0.35156 1.2578 2.2148-0.75391 0.39844-1.7109h1.7461c-1.4258-3.1836-2.168-6.6328-2.1797-10.121 0-13.789 11.172-24.254 24.957-24.254 13.789 0 24.965 10.465 24.965 24.254-0.007812 3.9766-0.96094 7.8945-2.7891 11.426l2.0039 0.058594 125.33 0.35156 7.8086-0.45313 3.0664 0.050782c-1.9766-3.5469-3.0156-7.5391-3.0234-11.602-0.003906-13.215 9.6914-24.91 24.918-24.914 15.027 0 24.211 11.699 24.207 24.914-0.007813 4.2305-1.1406 8.3828-3.2734 12.035l6.4062 0.0625 16.934-4.6719c9.0664-4.0898 10.199-9.0898 11.441-13.129 0.14844-0.10156 0.30469-0.19531 0.42188-0.30469l0.082031-0.074219 0.03125-0.10547c0.41406-1.4141 0.52734-2.7734 0.42188-4.082l0.1875-7.5742-0.007813-0.039062c-1.457-8.0859-1.6094-17.137-2.1523-25.941-0.046875-2.125 0.92578-3.8984 1.5234-5.9531l0.10156-0.33984-11.895-4.9922 0.070312 0.58594c-11.867-5.5938-29.812-12.949-46.156-16.684v-0.007812h-0.007812c-18.668-3.9297-37.777-5.6953-57.23-5.7109h-0.37109zm0.37109 0.80469v0.011719c19.371 0.015625 38.398 1.7852 56.988 5.6875l0.69141 3.4883c-19.723-4.9609-42.629-7.4453-66.391-7.0078 0.11719-0.69531 0.22656-1.3789 0.34766-2.0781h0.03125c2.7852-0.066406 5.5586-0.10156 8.332-0.10156zm-8.6914 0.12109c-0.12109 0.69141-0.22266 1.3711-0.33984 2.0586h-0.25781v-0.007813c-27.812 0.54688-62.289 9.2188-88.82 31.508l-1.8008 1.5234 2.3477-0.10156 9.4258-0.38281c-1.332 1.7422-2.3086 4.6016-2.9609 8.5977h-0.007813l-0.55859 1.8203v0.03125c-0.050781 11.449-0.85156 23.145 0.74219 34.133l-1.5039 0.03125-0.86719-5.6445c-1.8711-15.227-14.852-27.023-30.582-27.023-17.016 0-30.82 13.801-30.82 30.812 0.003906 0.70312 0.046875 1.4141 0.10156 2.1172-5.6641-0.33594-11.293 0-16.777-1.543-0.066407-0.17187-0.625-1.5664-1.2109-3.5469-0.61719-2.0938-1.1719-4.6406-1.0078-6.2461 0.078124-0.78125 0.46875-1.3672 0.9375-2.0781 0.46875-0.71094 1-1.5391 1.1602-2.707 0.058594-0.44531-0.019532-1.0547-0.14453-1.8711s-0.3125-1.8047-0.50391-2.8633c-0.37891-2.1211-0.77734-4.5234-0.80469-6.2422 0 0.070313 0.0625-0.13281 0.20312-0.27734 0.13672-0.14453 0.28516-0.25 0.28516-0.25l-0.35938-0.70703c-0.18359 0.054688-0.14453 0-0.11328 0.050781 0.03125 0.03125-0.011719-0.039062-0.011719-0.19141-0.003906-0.26953 0.082031-0.71875 0.12109-1.1445 1.75-1.9375 5.168-3.8672 9.6992-5.6875 4.5664-1.832 10.219-3.5781 16.324-5.2344 12.184-3.3086 26.16-6.2734 36.984-9.0039l3.168 0.52734 4.168-0.92578 5.3984-1.832h0.023438c23.539-11.391 42.297-25.727 88.367-27.703zm-0.60547 3.6641c-1.5078 8.9805-2.7383 17.684-3.8594 26.281h-0.09375l-5.793 0.23047 7.0078-26.395c0.91016-0.035156 1.8438-0.10938 2.7383-0.125zm0.32031 0c2.1914-0.042969 4.3516 0 6.5234 0.007812l-2.4766 25.82c-2.6367 0.14453-5.2734 0.26953-7.9102 0.43359 1.125-8.5898 2.3516-17.285 3.8594-26.262zm6.8438 0.007812c16.562 0.070312 32.512 1.5312 47.148 4.3438l-1.1836 18.477c-16.09 1.3789-32.273 2.082-48.449 2.9805l2.4805-25.801zm-10.246 0.13281-7.0078 26.398-51.926 2.1094c0.28906-0.40234 0.53125-0.84766 0.61719-1.3477l0.007812-0.03125-0.10156-2.5391c-0.11719-1.4375-0.20312-2.4961-0.74219-3.1602-0.027343-0.035156-0.066406-0.054688-0.09375-0.089844l2.7969-7.8281c18.805-8.7031 38.805-12.777 56.453-13.516zm69.703 1.8516c16.234 3.7422 34.121 11.078 45.883 16.633l0.058594 0.03125 1.0508 0.11328-0.023438-0.23828 9.9766 4.1836c-0.57422 1.8125-1.5 3.582-1.4688 5.8008-0.19922-0.16016-0.41016-0.30859-0.67578-0.40234-0.66406-0.23438-1.4766-0.32422-2.1719-0.49219h-0.046875c-2.5859 0.26562-5.5273 1.8867-8.3438 3.7148-2.8203 1.8281-5.5117 3.8672-7.5586 4.9922-0.26953 0.14063-0.43359 0.46484-0.51563 0.80078-0.042968 0.16797-0.058593 0.34766-0.03125 0.51172 0.027344 0.16406 0.10156 0.32422 0.24609 0.42969h0.042969c1.7188 0.53125 2.9297 0.80078 3.6523 0.75391 4.8789 0.23047 9.7695 0.44141 14.844 0.20703 0.019531 0 0.03125 0.03125 0.058593 0.03125 0.058594 0 0.13672 0 0.18359-0.03125 0.09375-0.0625 0.125-0.14453 0.15625-0.23047 0.066406-0.17578 0.10156-0.42188 0.13672-0.70703 0.074219-0.54688 0.13281-1.207 0.21484-1.6172l0.23828-0.17578c0.32422 6.2344 0.69531 12.445 1.7266 18.211l-0.1875 7.5938v0.03125c0.09375 1.1758-0.019531 2.3828-0.37109 3.6445-0.53125 0.44922-1.7188 0.94531-3.375 1.3594-1.7031 0.42578-3.8516 0.79688-6.2109 1.1406-4.6055 0.66797-9.957 1.2266-14.363 1.8594-0.39062-1.4258-1.2656-4.6836-2.5898-8-4.5078-11.406-15.617-19.336-28.441-19.348-0.28125 0-0.55469 0.03125-0.83203 0.039063l3.4648-17.078-0.625-3.1289c11.828-0.92969 19.047-2.7422 22.887-6.957l0.75-0.83203-1.0195-0.45312c-7.7422-3.5156-16.512-6.4961-26.016-8.9062l-0.69922-3.4961zm-11.984 2.4258c4.3555 0.84375 8.6133 1.7891 12.707 2.8711l2.7383 13.793c-5.5273 0.6875-11.07 1.2422-16.625 1.7188l1.1758-18.383zm13.055 2.9531c7.2891 1.9414 14.164 4.2305 20.449 6.9219v1.9766c-1.6094 1.6641-2.5234 2.0078-3.8594 2.5078-3.4844 1.0781-8.0078 1.8203-13.875 2.2734zm-127.64 6.4883-2.6406 7.3945c-0.44531-0.44141-0.97266-0.8125-1.9648-0.94531-0.41797-0.054687-0.41797-0.027343-1.2734-0.050781v0.011719c-0.90625-0.027344-3.5781 0.26953-5.2344 1.3867-1.6758 1.1328-2.5352 2.25-3.1602 3.3516-0.62109 1.0898-1.0312 2.1523-1.8086 3.2109-0.19141 0.14062-0.61328 0.28125-1.1602 0.39062l3.2383-7.1289c4.5508-2.8398 9.2266-5.3906 14-7.6211zm-5.8867 6.7305c0.85938 0.027344 0.84375-0.003906 1.2461 0.050781 1.1758 0.15625 1.6328 0.5625 2.1094 1.1523 0.44141 0.54297 0.55078 1.5508 0.66797 2.9844l0.10156 2.4883c-0.13281 0.73828-0.59766 1.4102-1.1523 1.8906-0.55859 0.48047-1.2109 0.75781-1.6484 0.73828h-0.007812l-6.2617 0.35156-7.3008 0.30469h-0.41016l-0.050781-0.046875c-0.011719 0-0.019531 0.035156-0.03125 0.050781l-4.4258 0.16406-0.78906-0.88672c1.3242-0.27344 2.9727-0.44141 4.4648-0.60547 0.79297-0.085938 1.5352-0.17969 2.1406-0.29688 0.60938-0.11719 1.0859-0.25 1.3711-0.47266l0.011719-0.03125h0.019531c0.82031-1.1094 1.2266-2.1953 1.8398-3.2695 0.61328-1.0703 1.418-2.1367 3.0547-3.2422 1.5391-1.0391 4.2383-1.3594 5.043-1.3359zm-8.6016 1.1836-3.125 6.8945c-0.53516 0.089844-1.1211 0.17188-1.7891 0.24609-1.5352 0.16797-3.2773 0.32422-4.6523 0.625l-1.4922 0.0625c3.5586-2.8477 7.2656-5.4375 11.059-7.8281zm144.84 0.89453 0.61719 3.0977-3.4766 17.098c-14.914 0.56641-27.117 11.77-29.152 26.266-0.070312 0.80859-0.42188 2.293-0.49609 3.9805l-46.828 0.94531c1.3398-13.074 2.6797-26.148 4.3086-39.504l10.207-0.44141h0.011718c1.3633-0.19141 2.0938-0.51562 2.5742-0.90234s0.69141-0.8125 0.99609-1.1719l0.23438-0.27734-13.73 0.54688c0.17969-1.457 0.39062-2.9414 0.57812-4.4102 24.707-1.5352 49.547-2.1562 74.156-5.2266zm-74.477 5.2383c-0.1875 1.4648-0.39844 2.9492-0.57813 4.4102l-11.461 0.46094h-0.019531c-1.6289 0.44141-2.3633 1.1367-2.8672 2.1484l-0.12109 0.24609h0.26953l13.898-0.60547c-1.625 13.359-2.9648 26.43-4.3086 39.5l-72.043 1.4492c-1.5938-10.949-0.78906-22.637-0.73828-34.113l0.54687-1.7812c0.67578-4.1406 1.7031-7.0586 3.0547-8.6914l74.363-3.0156zm123.29 0.03125v0.03125c0.71094 0.16797 1.5039 0.26172 2.0977 0.47266 0.30469 0.10938 0.55078 0.24219 0.71875 0.42188 0.035157 0.035156 0.054688 0.082031 0.082032 0.125 0.14062 2.3086 0.26172 4.6289 0.38281 6.9531l-0.51172 0.37109-0.011719 0.058593c-0.097657 0.45312-0.14844 1.1562-0.21875 1.707-0.035157 0.27734-0.082031 0.51953-0.125 0.64063h-0.078125c-5.0742 0.23437-9.9688 0-14.867-0.21094h-0.015625c-0.60938 0.035156-1.8203-0.21484-3.4961-0.73047-0.050782-0.042969-0.097657-0.10547-0.11328-0.19922-0.015625-0.10547-0.007812-0.24219 0.023438-0.37891 0.066406-0.26953 0.25-0.53516 0.35938-0.58984 2.0859-1.1484 4.7773-3.1875 7.582-5.0078 2.8008-1.8164 5.7109-3.3945 8.1875-3.6523zm-110.54 4.168c-0.21484 0.29688-0.38672 0.59375-0.70703 0.85156-0.42188 0.33984-1.1016 0.64844-2.4297 0.83203l-10.125 0.44141c0.0625-0.52734 0.14062-1.0703 0.20703-1.6016zm-13.375 0.53516c-0.066407 0.52734-0.14453 1.0703-0.20703 1.6016l-13.465 0.58594c0.45703-0.75391 0.95313-1.3516 2.3164-1.7266zm-138.57 6.5312c-1.3047 0.21875-4.3633 0.6875-7.6719 1.6133-3.3086 0.92578-6.8672 2.3047-9.2148 4.375l-0.0625 0.050781 0.007813 0.082031c0.09375 0.98438 0.30078 1.8633 0.875 2.9492l0.011719 0.03125 0.019531 0.03125c0.41797 0.38281 0.80078 0.43359 1.1094 0.43359l10.906-0.60547h0.011719c3.3477-0.50781 3.9531-1.2773 5.1133-1.9453h0.007812l8.5469-6.5742-9.6406-0.41016h-0.019531zm58.367 0.25-10.418 0.44531 0.0625 0.19922c0.44531 1.3945 1.9062 2.3906 3.1797 3.0156l0.074218 0.039062 0.070313-0.03125c1.0469-0.49219 2.5508-0.99219 3.8984-1.5352 1.2891-0.51953 2.3711-1.082 2.8516-1.8008 0.023437-0.03125 0.11328-0.046875 0.13281-0.082032l0.14453-0.24609zm-58.316 0.070313 8.7109 0.37109-7.8164 6.0195h-0.007813c-1.207 0.69531-1.6875 1.4023-4.9922 1.9023l-10.871 0.60547c-0.28125 0-0.51953-0.03125-0.86719-0.34766-0.51953-0.99219-0.70312-1.7852-0.80078-2.6875 2.2773-1.9844 5.7539-3.3594 9.0117-4.2695 3.2812-0.91797 6.3203-1.3789 7.6328-1.6016zm57.465 0.28906c-0.48438 0.50781-1.2656 1.0195-2.3984 1.4727-1.3008 0.52344-2.75 1.0078-3.8242 1.5039-1.1367-0.56641-2.2812-1.4883-2.7656-2.5898l8.9883-0.39062zm153.54 9.3828 0.003907 0.007812c-6.1484 0-12.043 2.4375-16.391 6.7852-4.3477 4.3477-6.7891 10.242-6.7891 16.391 0 6.1445 2.4414 12.043 6.7891 16.387 4.3477 4.3477 10.242 6.7891 16.391 6.7891 6.1484-0.003906 12.043-2.4453 16.387-6.7891 4.3477-4.3477 6.7891-10.242 6.7891-16.387 0-6.1484-2.4414-12.043-6.7891-16.387-4.3438-4.3477-10.238-6.7891-16.387-6.7891zm-181.75 0.71094 0.003906 0.007812c-6.1484 0-12.043 2.4414-16.391 6.7852-4.3477 4.3477-6.793 10.242-6.793 16.391 0 6.1484 2.4453 12.043 6.793 16.387 4.3477 4.3477 10.242 6.7891 16.391 6.7891 6.1445 0 12.043-2.4414 16.391-6.7891 4.3477-4.3438 6.7891-10.238 6.7891-16.387 0-6.1484-2.4414-12.043-6.7891-16.391-4.3477-4.3438-10.246-6.7852-16.391-6.7852zm183.18 3.7344 0.003906 0.007813c2.2852 0.17578 4.5195 0.76953 6.5898 1.75l-1.0977 2.3242c-1.7539-0.83203-3.6562-1.3828-5.6875-1.5352l0.1875-2.5391zm-4.5586 0.19531 0.42969 2.5234c-2.2266 0.375-4.2969 1.2031-6.1211 2.3867l-1.3906-2.1484v0.011718c2.1484-1.3945 4.5586-2.3359 7.082-2.7656zm-177.2 0.51562v0.011719c2.2891 0.17578 4.5273 0.77344 6.6016 1.7539l-1.0977 2.3242c-1.7539-0.83203-3.6602-1.3906-5.6914-1.543l0.1875-2.5391zm-4.5547 0.19531 0.42969 2.5195c-2.2305 0.375-4.2969 1.2109-6.1211 2.3945l-1.3984-2.1484v0.007812c2.1523-1.3945 4.5625-2.3359 7.0898-2.7656zm186.09 1.9531c1.9883 0.15234 3.8555 0.69141 5.5742 1.5039l-4.125 8.7617 0.003906 0.007813c-0.6875-0.30859-1.4297-0.48047-2.1797-0.50391l0.73047-9.7617zm-3.8594 0.17578 1.6562 9.7227v0.011719c-0.79297 0.17969-1.543 0.52734-2.1953 1.0195l-5.4609-8.4023c1.7891-1.1602 3.8164-1.9766 6-2.3438zm-177.89 0.53516c1.9922 0.15234 3.8594 0.69531 5.5781 1.5117l-4.1328 8.7539 0.003906 0.007812c-0.6875-0.30859-1.4258-0.47656-2.1797-0.50391l0.73047-9.7617zm-3.8555 0.17578 1.6562 9.7227 0.003906 0.011719c-0.79688 0.17969-1.5469 0.52734-2.1992 1.0195l-5.4648-8.4023c1.7891-1.1602 3.8203-1.9766 6.0078-2.3438zm196.28 0.42969 0.003906 0.007812c1.7617 1.4414 3.2461 3.1914 4.3828 5.1641l-2.2422 1.2969c-0.98828-1.707-2.2656-3.1992-3.7852-4.4414l1.6445-2.0234zm-181.75 0.71094 0.003906 0.011719c1.7578 1.4414 3.2422 3.1914 4.375 5.1641l-2.2422 1.2969c-0.98828-1.707-2.2656-3.1992-3.7852-4.4414l1.6484-2.0234zm156.16 1.0078 1.8711 1.75c-1.3789 1.4727-2.4922 3.1836-3.25 5.0898l-2.3672-0.9375 0.003907 0.007812c0.87109-2.1836 2.1406-4.1836 3.7461-5.9023zm23.742 0.54688c1.4883 1.2188 2.7422 2.6797 3.7109 4.3516l-8.3711 4.8359 0.003906 0.011719c-0.35547-0.66016-0.83984-1.2422-1.4219-1.7188l6.082-7.4688zm-205.49 0.16406 1.8711 1.75c-1.3789 1.4727-2.4922 3.1836-3.25 5.0898l-2.3672-0.9375 0.003907 0.007813c0.87109-2.1836 2.1406-4.1836 3.75-5.8984zm-24.875 0.26562-2.6211 0.15234c-0.54297 0.20703-1.1328 0.31641-1.1602 1.5625l-0.058594 2.2812-4.7305 0.74219 4.7109 0.09375-0.0625 2.6133-3.2383 0.50391 3.2188 0.0625-0.09375 3.8242c0.53906 0.19922 0.875 0.19922 1.0078 0 1.8047-2.082 2.1719-6.0156 3.0234-11.832zm48.609 0.28906c1.4883 1.2148 2.7422 2.6719 3.7109 4.3438l-8.3711 4.8359 0.007812 0.011719c-0.35938-0.66016-0.84375-1.2422-1.4219-1.7188l6.082-7.4609zm160.12 0.70703 7.3789 6.9023 0.007813 0.007812c-0.44922 0.55859-0.78906 1.1953-1.0078 1.8789l-9.5547-3.793c0.74219-1.8672 1.8281-3.5469 3.1797-4.9883zm-181.75 0.71094 7.3867 6.9023 0.003907 0.011719c-0.44922 0.55469-0.78906 1.1914-1.0078 1.875l-9.5586-3.793c0.74219-1.8672 1.8281-3.5469 3.1797-4.9883zm211.41 4.9453 0.003906 0.007812c0.49219 1.6914 0.74609 3.4453 0.75 5.207-0.003906 0.57812-0.03125 1.1523-0.085937 1.7266l-2.543-0.23828c0.042969-0.48828 0.074219-0.98438 0.074219-1.4844 0-1.5664-0.28516-3.0508-0.69922-4.4844l2.5078-0.72266zm-17.879 0.19531 0.003906 0.011719c0.023438-0.003906 0.042969-0.003906 0.0625 0 0.24219-0.003906 0.47266 0.09375 0.64453 0.26172 0.16797 0.17188 0.26562 0.40234 0.26562 0.64453 0 0.23828-0.097656 0.46875-0.26562 0.64062-0.17188 0.16797-0.40234 0.26562-0.64453 0.26562-0.23828 0-0.46875-0.097656-0.64062-0.26562-0.16797-0.17188-0.26562-0.40234-0.26562-0.64062 0-0.48047 0.36719-0.875 0.84375-0.90625zm-163.88 0.51563 0.003906 0.011718c0.49219 1.6914 0.74609 3.4453 0.75 5.207-0.003906 0.57812-0.035156 1.1523-0.089844 1.7266l-2.5391-0.23828c0.042968-0.48828 0.074218-0.98438 0.074218-1.4844 0-1.5664-0.28906-3.0547-0.70703-4.4922l2.5078-0.71875zm178.94 0.10156c0.40625 1.4062 0.6875 2.8594 0.6875 4.3945 0 0.49219-0.03125 0.97656-0.074219 1.4531l-9.8438-0.91797v0.011718c0.046875-0.28906 0.074219-0.57812 0.078125-0.87109-0.003906-0.46484-0.0625-0.92578-0.17969-1.3789l9.332-2.6836zm-196.82 0.09375 0.003906 0.007812h0.0625c0.24219 0 0.47266 0.097657 0.64062 0.26563 0.17188 0.17187 0.26562 0.40234 0.26562 0.64062 0 0.24219-0.09375 0.47266-0.26562 0.64453-0.16797 0.16797-0.39844 0.26562-0.64062 0.26562-0.5-0.003907-0.90234-0.41016-0.90234-0.91016 0-0.47266 0.36719-0.86719 0.83984-0.90625zm15.062 0.61719c0.40625 1.4062 0.69141 2.8594 0.69141 4.3945 0 0.49219-0.03125 0.98047-0.074219 1.4609l-9.8477-0.92578 0.003906 0.011719c0.046875-0.28906 0.070313-0.57812 0.074219-0.87109-0.003906-0.46484-0.0625-0.92969-0.17578-1.3789l9.332-2.6836zm170.21 0.9375 0.007813 0.007812h0.003906 0.0625c0.24219 0 0.47266 0.097656 0.64453 0.26562 0.16797 0.17188 0.26172 0.40234 0.26172 0.64453 0 0.23828-0.09375 0.46875-0.26562 0.64062-0.16797 0.16797-0.39844 0.26562-0.64062 0.26562-0.23828 0-0.46875-0.097656-0.64062-0.26562-0.16797-0.17188-0.26562-0.40234-0.26562-0.64062 0-0.47656 0.36328-0.87109 0.83984-0.91016zm-22.301 0.22656 2.5078 0.33984c-0.097656 0.71484-0.16406 1.4375-0.16406 2.1797 0 1.2891 0.18359 2.5273 0.46484 3.7266l-2.4805 0.58594 0.007812 0.011719c-0.34375-1.4141-0.51562-2.8633-0.52344-4.3164 0.007812-0.84375 0.074218-1.6836 0.19531-2.5195zm15.402 0.32812 0.007812 0.007813h0.0625c0.24219 0 0.47266 0.097656 0.64453 0.26562 0.16797 0.17188 0.26172 0.40234 0.26172 0.64063 0 0.5-0.40625 0.90234-0.90625 0.90234-0.49609 0-0.90234-0.40234-0.90625-0.90234 0-0.47656 0.36719-0.87109 0.84375-0.90625zm-12.578 0.058594 10.305 1.3867 0.007812 0.007812c-0.011718 0.13672-0.019531 0.27734-0.023437 0.41406-0.003906 0.53125 0.070313 1.0625 0.21484 1.5742l-10.191 2.4102c-0.27734-1.1797-0.46094-2.3906-0.46094-3.6523 0-0.72656 0.0625-1.4336 0.15625-2.1367zm-162.37 0.085937 0.011719 0.007813h0.003906 0.007812 0.082032 0.0625c0.21484 0.003906 0.42187 0.078125 0.58594 0.21875 0.019531 0.019531 0.042969 0.039062 0.0625 0.058593 0.023437 0.027344 0.042969 0.050782 0.0625 0.078126 0.019531 0.019531 0.035156 0.039062 0.050781 0.0625 0.015625 0.023437 0.03125 0.046874 0.042969 0.070312 0.015625 0.023438 0.027344 0.046875 0.039063 0.074219 0.011718 0.027343 0.023437 0.054687 0.03125 0.082031 0.007812 0.023438 0.015624 0.046875 0.019531 0.074219 0.007812 0.046875 0.011719 0.097656 0.011719 0.14844 0 0.027344-0.003907 0.054688-0.007813 0.082032 0 0.027343-0.003906 0.054687-0.011719 0.082031 0 0.007812-0.003906 0.019531-0.003906 0.03125-0.007812 0.023437-0.011719 0.042969-0.019531 0.066406-0.007813 0.027344-0.015625 0.050781-0.027344 0.074219h-0.003906c-0.011719 0.023437-0.027344 0.046875-0.039063 0.070312-0.011718 0.027344-0.027344 0.050782-0.042968 0.074219-0.019532 0.023437-0.039063 0.042969-0.058594 0.0625-0.019532 0.019531-0.039063 0.039063-0.0625 0.058594-0.019532 0.023437-0.039063 0.042969-0.0625 0.0625h-0.007813c-0.16016 0.12891-0.35547 0.19922-0.55859 0.19922-0.27734 0-0.53906-0.125-0.71094-0.33984-0.019531-0.023438-0.035156-0.046875-0.050781-0.070313-0.035157-0.046875-0.0625-0.10156-0.082031-0.15625-0.011719-0.023437-0.023438-0.050781-0.03125-0.074219-0.007813-0.027343-0.015626-0.054687-0.019532-0.082031-0.007812-0.027343-0.011718-0.054687-0.011718-0.078125-0.003907-0.023437-0.003907-0.046875 0-0.070312 0-0.050782 0.007812-0.10547 0.015624-0.15625 0.007813-0.027344 0.011719-0.054688 0.019532-0.082032 0.015625-0.042968 0.03125-0.085937 0.050781-0.125 0.007813-0.015624 0.015625-0.03125 0.027344-0.046874 0.011719-0.023438 0.027343-0.042969 0.042969-0.066407 0.015624-0.019531 0.027343-0.039062 0.042968-0.058593 0.003906-0.011719 0.007813-0.019532 0.011719-0.03125 0.019531-0.023438 0.042969-0.046876 0.066406-0.070313 0.0625-0.0625 0.13281-0.11328 0.21094-0.15234h0.007812c0.023438-0.011719 0.050781-0.023437 0.074219-0.03125h0.007812c0.054688-0.023437 0.11328-0.035156 0.17188-0.046875zm-22.211 0.23828 2.5117 0.33984c-0.097656 0.71484-0.16406 1.4375-0.16406 2.1797 0 1.2891 0.18359 2.5273 0.46484 3.7266l-2.4883 0.58594 0.011719 0.011719c-0.33984-1.4141-0.51562-2.8633-0.52344-4.3164 0.011719-0.84375 0.074219-1.6836 0.19531-2.5195zm15.402 0.32812 0.011719 0.007813h0.003906 0.066406c0.23828 0 0.46875 0.097656 0.64062 0.26562 0.16797 0.17188 0.26562 0.40234 0.26562 0.64062-0.003906 0.5-0.41016 0.90234-0.90625 0.90234-0.5 0-0.90625-0.40234-0.91016-0.90234 0-0.47266 0.36328-0.87109 0.83984-0.90625zm-12.578 0.058594 10.305 1.3906 0.011718 0.007813c-0.015625 0.13672-0.023437 0.27344-0.027344 0.41016 0 0.53125 0.074219 1.0625 0.22266 1.5742l-10.195 2.4102c-0.27734-1.1797-0.46094-2.3906-0.46094-3.6523 0-0.72656 0.0625-1.4336 0.15625-2.1367zm200.32 2.8008 0.011719 0.007812h0.007813 0.0625c0.24219 0 0.47266 0.097656 0.64062 0.26562 0.17188 0.17188 0.26562 0.40234 0.26562 0.64453 0 0.23828-0.09375 0.46875-0.26562 0.64062-0.16797 0.16797-0.39844 0.26562-0.64062 0.26562-0.23828 0-0.46875-0.097656-0.64062-0.26562-0.17188-0.17188-0.26562-0.40234-0.26562-0.64062 0-0.47656 0.36328-0.87109 0.83594-0.91016zm-4.375 0.35156 0.011719 0.011719h0.0625c0.24219 0 0.47266 0.09375 0.64062 0.26562 0.17188 0.16797 0.26562 0.39844 0.26562 0.64062 0 0.23828-0.09375 0.47266-0.26562 0.64062-0.16797 0.17188-0.39844 0.26562-0.64062 0.26562-0.24219 0-0.47266-0.09375-0.64062-0.26562-0.17188-0.16797-0.26562-0.40234-0.26562-0.64062 0-0.47656 0.36719-0.875 0.84375-0.90625zm7.2031 0.19922 9.3711 3.2812c-0.70703 2.0312-1.7969 3.8594-3.207 5.4219l-7.4805-6.7891 0.011719 0.011719c0.56641-0.54297 1.0117-1.1953 1.3164-1.9141zm-184.58 0.15625 0.011719 0.011719h0.007813 0.0625c0.23828 0 0.46875 0.097656 0.64062 0.26562 0.16797 0.17188 0.26563 0.40234 0.26563 0.64453 0 0.23828-0.097657 0.46875-0.26563 0.64062-0.17187 0.16797-0.40234 0.26562-0.64062 0.26562-0.24219 0-0.47266-0.097656-0.64063-0.26562-0.17187-0.17188-0.26562-0.40234-0.26562-0.64062-0.003907-0.47656 0.36328-0.87109 0.83594-0.91016zm-4.375 0.35156 0.007813 0.015625h0.007812c0.019531-0.003906 0.042969-0.003906 0.0625 0 0.24219 0 0.47266 0.09375 0.64062 0.26562 0.17188 0.16797 0.26562 0.39844 0.26562 0.64062 0 0.23828-0.09375 0.47266-0.26562 0.64062-0.16797 0.17188-0.39844 0.26562-0.64062 0.26562-0.23828 0-0.46875-0.09375-0.64062-0.26562-0.16797-0.16797-0.26562-0.40234-0.26562-0.64062 0-0.47656 0.36328-0.87109 0.83984-0.90625zm178.57 0.03125 0.007812 0.015625c0.35156 0.64062 0.82422 1.207 1.3867 1.6758l-6.6758 8.1172c-1.6719-1.375-3.043-3.0664-4.043-5.0078l9.332-4.7852zm-171.36 0.17578 9.3711 3.2812c-0.70703 2.0312-1.7969 3.8594-3.207 5.4219l-7.4805-6.7891 0.007813 0.015625c0.5625-0.53906 1.0117-1.1914 1.3164-1.9141zm-10.387 0.53516 0.007812 0.015625c0.35156 0.64062 0.82422 1.2109 1.3867 1.6758l-6.6836 8.1133c-1.668-1.375-3.043-3.0586-4.043-4.9961l9.3398-4.793zm189.7 1.5 5.7227 8.5312c-1.7188 1.1602-3.6719 1.9922-5.7812 2.4141l-2.0156-10.227 0.011719 0.015625c0.73047-0.10547 1.4336-0.34766 2.0703-0.71875zm-5.4609 0.17188 0.011719 0.015625c0.64062 0.32031 1.3359 0.51953 2.0508 0.58594l-0.51172 10.465c-2.1758-0.10156-4.2188-0.66016-6.082-1.5508l4.5391-9.5039zm17.562 0.47266 2.457 0.85547 0.011718 0.015625c-0.82812 2.3711-2.1211 4.5508-3.8047 6.4102l-1.9141-1.7383c1.4375-1.5898 2.543-3.4609 3.2617-5.5273zm-193.86 0.066406 5.7305 8.5312c-1.7188 1.1602-3.6797 1.9922-5.7891 2.4141l-2.0156-10.227 0.011719 0.015625c0.73047-0.10547 1.4336-0.34766 2.0742-0.71875zm-5.4531 0.17188 0.011719 0.015625c0.64062 0.32031 1.332 0.51953 2.0469 0.58594l-0.50391 10.465c-2.1797-0.10156-4.2227-0.66016-6.0898-1.5508l4.5469-9.5039zm17.562 0.47266 2.4492 0.85547 0.011719 0.015625c-0.82812 2.3711-2.1211 4.5508-3.8008 6.4102l-1.9141-1.7383c1.4375-1.5938 2.5469-3.4609 3.2695-5.5273zm152.07 1.3711c1.0195 1.9766 2.4219 3.6992 4.125 5.1016l-1.6562 2.0156 0.011719 0.015625c-1.9883-1.6289-3.6172-3.6445-4.793-5.9258l2.3242-1.1914zm-181.75 0.71094c1.0195 1.9766 2.4219 3.6992 4.125 5.1016l-1.6641 2.0156 0.011719 0.015625c-1.9805-1.625-3.6094-3.6406-4.7852-5.918l2.3242-1.1953zm205.23 5.3594 1.4102 2.1016 0.011719 0.019532c-2.0664 1.3906-4.3867 2.3594-6.8281 2.8477l-0.49219-2.4883c2.1523-0.42578 4.1523-1.2773 5.9062-2.4609zm-181.75 0.71094 1.418 2.1016 0.007813 0.019531c-2.0664 1.3906-4.3906 2.3594-6.832 2.8477l-0.49219-2.4883c2.1523-0.42578 4.1523-1.2734 5.9062-2.4609zm165.71 0.44531c1.9023 0.90625 3.9883 1.4805 6.2109 1.582l-0.125 2.543 0.003907 0.019531c-2.4922-0.11719-4.9375-0.73047-7.1914-1.8008l1.1094-2.3242zm-181.75 0.71094c1.9023 0.90625 3.9844 1.4805 6.2031 1.582l-0.12109 2.543 0.007813 0.019531c-2.4961-0.11719-4.9414-0.72656-7.1953-1.8008l1.1133-2.3242z" fill-rule="evenodd"/>
</svg>
