<?xml version="1.0" encoding="UTF-8"?>
<svg xmlns="http://www.w3.org/2000/svg" version="1.1" viewBox="0 0 2500 403">
  <defs>
    <style>
      .cls-1 {
        fill: #fff;
      }
    </style>
  </defs>
  <!-- Generator: Adobe Illustrator 28.7.1, SVG Export Plug-In . SVG Version: 1.2.0 Build 142)  -->
  <g>
    <g id="Layer_1">
      <path class="cls-1" d="M2399.5,390c0-24.5-14.1-33-37.7-33h-177.2c-83.2,0-112.5-51.5-116.3-87h246c71.8,0,92.9-51.7,92.9-85s-23-84.9-92.9-84.9h-132.9c-121,0-160.8,82.4-160.8,149.2s45.3,149.2,160.5,149.2h218.4v-8.4ZM2184.9,141.6h123.3c42.5,0,52.8,26.5,52.8,43.5s-9.3,43.5-52.8,43.5h-240c2.9-29.6,27.7-87,116.6-87ZM1683.3,379.6c-12.7,17.3-21.4,23.4-32.5,23.4s-21.3-8.3-32.3-23.4c-26.7-36.4-204.7-279.5-204.7-279.5h27.5c29.7,0,38.2,10.5,50.5,27.7l160.1,225.7,160.9-226.8c11.3-16.1,20.2-26.5,50-26.5h24.2l-203.7,279.5ZM516.5,398.5c-18.6,0-30.3-9.2-34-29.1l-6.1-32.4c-10,18.7-47.4,61.5-128.3,61.5h-93c-126.6,0-162.3-85.8-162.3-149.2s42.9-149.2,162.3-149.2h93c90.5,0,141,52.7,153,117,10.1,53.7,33.9,181.4,33.9,181.4h-18.5ZM337.8,141.6h-79.5c-89.3,0-119.7,56.8-119.7,107.7s30.4,107.7,119.7,107.7h79.5c93.2,0,120.4-59.2,120.4-107.7s-24.3-107.7-120.4-107.7ZM1946.7,65.9c13.2,0,23.5-8.2,23.5-23.7v-9.8c0-15.7-10.4-23.7-23.5-23.7s-23.5,7.9-23.5,23.7v9.8c0,15.7,10.2,23.7,23.5,23.7ZM1923.7,100.1h10.9c21.3,0,34.9,9.6,34.9,38.5v259.9h-11.4c-23.4,0-34.5-12.6-34.5-37.7V100.1ZM604.9,138.9c19.8-18.7,54.7-38.8,110.2-38.8h93c126.5,0,162.3,85.8,162.3,149.2s-42.9,149.2-162.3,149.2h-93c-90.6,0-156-58.5-156-149.2V0h14.2C593.5,0,604.9,10.4,604.9,29.4v109.4ZM725.4,357h79.4c89.3,0,119.7-56.8,119.7-107.7s-30.4-107.7-119.7-107.7h-79.4c-93.3,0-120.5,59.1-120.5,107.7s24.2,107.7,120.5,107.7ZM1062.7,138.9c19.8-18.7,54.7-38.8,110.2-38.8h93c126.5,0,162.3,85.8,162.3,149.2s-43,149.2-162.3,149.2h-93c-90.5,0-156-58.5-156-149.2V0h14.2c20.2,0,31.7,10.4,31.7,29.4v109.4ZM1183.1,357h79.5c89.2,0,119.7-56.8,119.7-107.7s-30.4-107.7-119.7-107.7h-79.5c-93.2,0-120.4,59.1-120.4,107.7s24.3,107.7,120.4,107.7Z"/>
    </g>
  </g>
</svg>