<?xml version="1.0" encoding="UTF-8"?>
<svg xmlns="http://www.w3.org/2000/svg" version="1.1" viewBox="0 0 2500 596">
  <defs>
    <style>
      .cls-1 {
        fill: #04a774;
      }
    </style>
  </defs>
  <!-- Generator: Adobe Illustrator 28.7.1, SVG Export Plug-In . SVG Version: 1.2.0 Build 142)  -->
  <g>
    <g id="Layer_1">
      <path class="cls-1" d="M587.4,556.4h-138.6l-42.4-102.3h-231l-38.6,102.3H.5L208.8,39.9h149.2l229.5,516.5ZM285.3,163.3l-75.7,200.7h159l-83.3-200.7ZM1090.9,39.9h112.1v516.5h-128.8V233.8l-139.3,162h-19.7l-139.3-162v322.6h-128.8V39.9h112.1l165.8,191.6,165.9-191.6ZM1529.2,39.9c188.6,0,285.5,117.4,285.5,259s-93.9,257.5-299.9,257.5h-213.6V39.9h228ZM1430,461.7h84c129.5,0,168.1-87.9,168.1-163.6s-47.7-163.6-169.6-163.6h-82.5v327.2h0ZM2070.8,162.4L1908.5,0h591v591l-162.3-162.4V162.4h-266.3ZM2070.6,194.9l-167.1,167.1v234h233.9l167.1-167.1h-233.9v-234Z"/>
    </g>
  </g>
</svg>