<?xml version="1.0" encoding="UTF-8"?>
<svg xmlns="http://www.w3.org/2000/svg" version="1.1" viewBox="0 0 1837.6 211.4">
  <defs>
    <style>
      .cls-1 {
        fill: #0067b1;
      }
    </style>
  </defs>
  <!-- Generator: Adobe Illustrator 28.7.1, SVG Export Plug-In . SVG Version: 1.2.0 Build 142)  -->
  <g>
    <g id="Layer_1">
      <path class="cls-1" d="M678.2,60.5c-43.3,0-64.9,31.9-64.9,74.9s20.7,76,64.9,76,64.8-31.3,64.8-76-21.5-74.9-64.8-74.9M678.2,182.1c-11.5,0-16.6-10.3-16.6-46.8s3.4-45.6,16.6-45.6,16.6,12.3,16.6,45.6-5.2,46.8-16.6,46.8M773,48.2v16.1h-19v32.7h19v111.3h46.5v-111.3h25.3v-32.7h-25.3v-14.6c0-8.8,4.4-13.5,16.7-13.5s6,.6,8.6,1.2V1.7c-7.5-.9-14.4-1.7-23.5-1.7-30.7,0-48.2,12.9-48.2,48.2M277.5,104.7c0-31.8-29-43.9-56.8-43.9s-52.2,11.4-57.4,39.8l40.4,8.3c.5-8.4,4.1-18.9,15.2-18.9s12,5.7,12,14.3v12.4c-30.7,3.6-73,14.6-74,52.1-.7,26.5,17,42.1,40.1,42.1s27.4-7.6,35.4-15.9c.3,2.4.6,9.2,1.5,13.2h47.9c-1.8-2-4.3-6.9-4.3-23.2v-80.3s0,0,0,0ZM231,171.6c-4,5.2-9.6,8.9-14.9,8.9-8.3,0-13.5-5.2-13.5-15.3,0-18.4,12.2-24.5,28.4-26.1v32.4ZM391.5,60.9c-18.1,0-30.9,8.4-40.5,18.2h-.6l-.2-14.7h-45.5v144h46.5v-103c4.2-5.4,9.9-8.9,15.1-8.9,7.8,0,10.7,4.6,10.7,12.8v99.1h46.5v-113.9c0-19.7-11.6-33.5-32-33.5M579.8,64.3h-46.2l-34.2,43.5h-.6V4h-46.5v204.3h46.5v-51.6l9.8-11.2h.6l22.7,62.8h48.2l-39.1-99.7,38.9-44.3ZM107.4,102.1v-1.6c14.8-5.8,33.3-19.8,33.3-46.5S116.9,4,80.8,4H0v204.3h78.7c38.8,0,66.9-19.7,66.9-54.6s-16.1-44.3-38.2-51.6M50.2,40.2h18.1c11.7,0,24.9,3.2,24.9,22.6s-7.4,22.1-26,22.1h-16.9v-44.8ZM69.1,170.4h-18.9v-51.1h18.9c16.6,0,26,10.1,26,25.3s-14.9,25.8-26,25.8M1833.3,185.1v-80.3c0-31.8-28.9-43.9-56.8-43.9s-52.2,11.4-57.4,39.8l40.5,8.3c.5-8.4,4-18.9,15.2-18.9s12,5.7,12,14.3v12.4c-30.7,3.6-73.1,14.6-74.1,52.1-.7,26.5,16.9,42.1,40.1,42.1s27.4-7.6,35.4-15.9c.2,2.4.6,9.2,1.4,13.2h47.9c-1.7-2-4.3-6.9-4.3-23.2M1786.9,171.6c-4,5.2-9.7,8.9-14.9,8.9-8.3,0-13.5-5.2-13.5-15.3,0-18.4,12.2-24.5,28.4-26.1v32.4ZM1326.5,60.5c-42.8,0-64,34.4-64,75.2s20.1,75.8,64.6,75.8c25.7.8,49-15.1,57.7-39.3l-31.3-11.5c-2.3,11.6-11.8,19.8-23,19.8-18.7,0-22.1-21.3-21.5-34.1h77.8v-9.8c0-37.6-15.5-76-60.2-76M1343.7,118.7h-34.7c-.7-13.6,4-29,17.2-29s18,15.6,17.5,29M1512.1,64.3h46.5v144h-46.5V64.3ZM1512.1,4h46.5v41.3h-46.5V4ZM1646,89.7c7.5,0,11.2,4,13.5,9.7,2,5.5,2.3,12.3,2.3,18.1h39.6c0-14.3-7.5-57.1-56.8-57.1s-65.7,39.3-65.7,78.6,21.8,72.3,63.7,72.3,53.9-18.3,57.4-53.4l-36.2-5.2c0,10.9-1.4,27.5-17.8,27.5s-17.2-10.6-17.2-43c0-28.7,1.7-47.6,17.1-47.6M925.6,4l-47.9,204.3h44.8l8.9-41.3h47.3l8,41.3h50.2L993.3,4h-67.7ZM938.5,130.9l17.3-83.2h1l14.7,83.2h-33ZM1452.1,83.8h-.8l-.5-19.5h-45v144h46.5v-93.3c5.4-6.5,13.6-11.1,25.5-11.1s13.7,1.9,19,4v-47c-17.9,0-35.3,7.7-44.8,22.9M1209.9,60.9c-19.5,0-33.3,10.5-41.5,19.3h-.6c-4.4-11.1-13.8-19.3-27.9-19.3s-31.9,8.9-41.6,18.1h-.6l-.2-14.7h-45.4v144h45.6v-102.7c3.9-5.3,10.9-8.9,15.8-8.9,8.6,0,10.9,5.2,10.9,12.9v98.7h45.6v-102.7c3-4,9.7-8.9,15.9-8.9s10.8,5.2,10.8,12.9v98.7h45.6v-114.8c0-19.9-13.1-32.6-32.4-32.6"/>
    </g>
  </g>
</svg>