<?xml version="1.0" encoding="UTF-8"?>
<svg xmlns="http://www.w3.org/2000/svg" version="1.1" viewBox="0 0 1882.8 426.6">
  <defs>
    <style>
      .cls-1 {
        fill: #fff;
      }
    </style>
  </defs>
  <!-- Generator: Adobe Illustrator 28.7.1, SVG Export Plug-In . SVG Version: 1.2.0 Build 142)  -->
  <g>
    <g id="Layer_1">
      <g id="Layer_1-2" data-name="Layer_1">
        <path class="cls-1" d="M.6,296.5c-1.6,4.1.6,5,1.1,5.7,4.7,3.4,9.5,5.9,14.3,8.6,25.5,13.5,49.6,17.5,74.8,17.5,51.3,0,83.1-27.3,83.1-71.2v-.9c0-40.6-35.9-55.3-69.7-66l-4.4-1.4c-25.4-8.3-47.4-15.4-47.4-32.1v-.9c0-14.3,12.8-24.9,32.7-24.9s48.3,7.3,65.2,16.7c0,0,4.9,3.2,6.8-1.6,1-2.6,9.5-25.6,10.4-28.1,1-2.7-.7-4.7-2.5-5.8-19.3-11.7-45.9-19.7-73.5-19.7h-5.1c-46.9,0-79.7,28.4-79.7,69v.9c0,42.8,36.1,56.7,70,66.4l5.4,1.7c24.7,7.6,45.9,14.1,45.9,31.5v.9c0,15.9-13.8,27.7-36.1,27.7s-36.3-.2-66.1-19c-3.6-2.1-5.7-3.6-8.5-5.3-1.5-.9-5.1-2.5-6.7,2.3L.5,296.6h.1ZM751.3,296.5c-1.6,4.1.6,5,1.1,5.7,4.7,3.4,9.5,5.9,14.3,8.6,25.5,13.5,49.6,17.5,74.8,17.5,51.3,0,83.1-27.3,83.1-71.2v-.9c0-40.6-35.9-55.3-69.7-66l-4.4-1.4c-25.4-8.3-47.4-15.4-47.4-32.1v-.9c0-14.3,12.8-24.9,32.7-24.9s48.3,7.3,65.2,16.7c0,0,4.9,3.2,6.8-1.6,1-2.6,9.5-25.6,10.4-28.1,1-2.7-.7-4.7-2.5-5.8-19.3-11.7-45.9-19.7-73.5-19.7h-5.1c-46.9,0-79.7,28.4-79.7,69v.9c0,42.8,36.1,56.7,70,66.4l5.4,1.7c24.7,7.6,46,14.1,46,31.5v.9c0,15.9-13.9,27.7-36.1,27.7s-36.3-.2-66.1-19c-3.6-2.1-5.7-3.6-8.4-5.3-.9-.6-5.3-2.3-6.8,2.3l-10.1,28.1h0ZM1263.9,210.5c0,24.8-4.6,44.4-13.7,58.2-9,13.7-22.7,20.3-41.7,20.3s-32.6-6.6-41.5-20.3c-9-13.8-13.5-33.4-13.5-58.2s4.6-44.3,13.5-58c8.9-13.5,22.4-20.1,41.5-20.1s32.7,6.6,41.7,20.1c9.1,13.7,13.7,33.2,13.7,58M1306.7,164.5c-4.2-14.2-10.8-26.7-19.5-37.2s-19.8-18.9-32.9-25-28.5-9.2-45.9-9.2-32.8,3.1-45.9,9.2c-13.1,6.1-24.1,14.5-32.9,25-8.7,10.5-15.2,23-19.5,37.2-4.2,14.1-6.3,29.6-6.3,46s2.1,31.9,6.3,46c4.2,14.2,10.8,26.7,19.5,37.2s19.8,18.8,32.9,24.8c13.1,5.9,28.5,9,45.9,9s32.8-3,45.9-9c13.1-5.9,24.1-14.3,32.9-24.8,8.7-10.4,15.3-23,19.5-37.2,4.2-14.1,6.3-29.6,6.3-46s-2.1-31.9-6.3-46M1658.2,282.4c-1.4-4.2-5.4-2.6-5.4-2.6-6.2,2.4-12.9,4.6-19.9,5.7-7.2,1.1-15,1.7-23.5,1.7-20.7,0-37.2-6.2-49-18.3-11.8-12.2-18.4-31.9-18.4-58.5s5.9-42.5,16.4-56.4c10.4-13.8,26.3-20.9,47.5-20.9s31.1,2,45.2,6.5c0,0,3.4,1.5,5-3,3.7-10.4,6.5-17.8,10.5-29.3,1.1-3.2-1.6-4.6-2.6-5-5.6-2.2-18.7-5.7-28.6-7.2-9.3-1.4-20.1-2.2-32.1-2.2-18,0-34,3.1-47.7,9.2-13.7,6.1-25.3,14.5-34.5,25s-16.2,23-20.8,37.2c-4.6,14.1-7,29.7-7,46.1,0,35.5,9.6,64.2,28.5,85.2,18.9,21.1,47.4,31.8,84.5,31.8s44.4-4.4,60.6-10.8c0,0,3.1-1.5,1.7-5.1l-10.5-29h.1ZM1733.1,186.7c2-13.8,5.8-25.3,11.7-34.2,8.9-13.6,22.4-21,41.4-21s31.6,7.5,40.6,21c6,8.9,8.6,20.9,9.6,34.2h-103.4,0ZM1877.2,156.4c-3.6-13.7-12.6-27.6-18.6-33.9-9.3-10-18.4-17.1-27.5-21-11.8-5.1-26-8.4-41.5-8.4s-34.5,3-47.8,9.3c-13.4,6.3-24.6,14.8-33.4,25.5-8.8,10.6-15.4,23.3-19.6,37.6-4.2,14.3-6.4,29.8-6.4,46.3s2.2,32.3,6.6,46.3c4.4,14.1,11.5,26.5,21,36.8,9.5,10.4,21.8,18.5,36.4,24.1,14.6,5.6,32.3,8.5,52.6,8.5,41.8,0,63.9-9.5,73-14.5,1.6-.9,3.1-2.5,1.2-6.9l-9.5-26.5c-1.4-4-5.4-2.5-5.4-2.5-10.4,3.8-25.1,10.8-59.5,10.7-22.5,0-39.1-6.7-49.6-17-10.7-10.6-16-26.2-16.9-48.2h144.9c0,0,3.8,0,4.2-3.6.1-1.6,5-29.8-4.3-62.4M572.6,186.7c2.1-13.8,5.8-25.3,11.7-34.2,8.9-13.6,22.4-21,41.4-21s31.6,7.5,40.6,21c5.9,8.9,8.5,20.9,9.6,34.2h-103.3ZM716.7,156.4c-3.6-13.7-12.6-27.6-18.5-33.9-9.3-10-18.4-17.1-27.5-21-11.8-5.1-26-8.4-41.5-8.4s-34.5,3-47.8,9.3c-13.4,6.3-24.6,14.8-33.4,25.5-8.8,10.6-15.4,23.3-19.6,37.6-4.2,14.3-6.4,29.8-6.4,46.3s2.2,32.3,6.6,46.3c4.4,14.1,11.5,26.5,21,36.8,9.5,10.4,21.8,18.5,36.4,24.1,14.6,5.6,32.3,8.5,52.6,8.5,41.8,0,63.9-9.5,73-14.5,1.6-.9,3.1-2.5,1.2-6.9l-9.4-26.5c-1.5-4-5.5-2.5-5.5-2.5-10.4,3.8-25.1,10.8-59.5,10.7-22.4,0-39.1-6.7-49.5-17-10.7-10.6-16-26.2-16.9-48.2h144.9c0,0,3.8,0,4.2-3.6,0-1.6,5-29.8-4.3-62.4M259.4,281.6c-5.7-4.5-6.4-5.7-8.4-8.6-2.9-4.5-4.3-10.8-4.3-18.8,0-12.8,4.2-21.9,12.9-28.1,0,0,12.5-10.9,42-10.5,20.8.3,39.3,3.3,39.3,3.3v65.9h0s-18.4,4-39.1,5.2c-29.5,1.8-42.6-8.5-42.5-8.5M317,179.8c-5.9-.4-13.5-.7-22.6-.7s-24.4,1.6-35.7,4.6-21.5,7.8-30.3,14c-8.7,6.2-15.9,14.4-21,23.9s-7.7,20.8-7.7,33.4,2.2,24,6.6,33.1c4.4,9.2,10.8,16.8,18.9,22.7,8,5.9,18,10.2,29.5,12.8,11.4,2.6,24.3,3.9,38.4,3.9s29.7-1.2,44-3.7c14.2-2.4,31.7-5.9,36.5-7,3.4-.8,6.8-1.7,10.2-2.6,3.6-.9,3.3-4.7,3.3-4.7v-132.5c0-29.1-7.8-50.6-23.1-64-15.2-13.3-37.6-20.1-66.6-20.1s-28.3,1.5-38.8,3.6c0,0-31.7,6.1-44.7,16.3,0,0-2.8,1.8-1.3,5.8l10.3,27.6c1.3,3.6,4.7,2.3,4.7,2.3,0,0,1.1-.4,2.4-1.2,27.9-15.2,63.1-14.7,63.1-14.7,15.7,0,27.7,3.1,35.8,9.4,7.9,6.1,11.9,15.2,11.9,34.5v6.1c-12.5-1.8-23.9-2.8-23.9-2.8M1485.8,105.1c1.1-3.3-1.2-4.8-2.2-5.2-2.5-1-14.8-3.6-24.3-4.2-18.2-1.1-28.3,2-37.4,6-9,4.1-18.9,10.6-24.5,18.1v-17.6c0-2.5-1.7-4.4-4.2-4.4h-37.1c-2.4,0-4.2,2-4.2,4.4v216.1c0,2.4,2,4.4,4.4,4.4h38.1c2.4,0,4.4-2,4.4-4.4v-108c0-14.5,1.6-29,4.8-38,3.1-9,7.4-16.2,12.7-21.3,5.3-5.1,11.3-8.7,17.9-10.8,6.7-2.1,14.2-2.7,19.4-2.7,7.6,0,15.9,2,15.9,2,2.8.3,4.3-1.4,5.3-3.9,2.5-6.6,9.5-26.5,10.9-30.4"/>
        <path class="cls-1" d="M1128.4,4.9c-4.6-1.4-8.8-2.4-14.3-3.4-5.6-1-12.2-1.5-19.7-1.5-26.2,0-46.9,7.4-61.4,22-14.4,14.5-24.2,36.6-29.1,65.7l-1.8,9.8h-32.9s-4,0-4.8,4.2l-5.4,30.2c-.4,2.9.9,4.7,4.7,4.7h32l-32.5,181.3c-2.5,14.6-5.5,26.6-8.7,35.7-3.2,9-6.3,15.7-10.1,20.6-3.7,4.7-7.2,8.2-13.3,10.2-5,1.7-10.8,2.5-17.1,2.5s-8.2-.6-11.6-1.3-5.2-1.4-7.8-2.5c0,0-3.7-1.4-5.2,2.3-1.2,3.1-9.7,26.6-10.8,29.5-1,2.9.4,5.1,2.2,5.8,4.3,1.5,7.4,2.5,13.2,3.9,8.1,1.9,14.8,2,21.2,2,13.3,0,25.5-1.9,35.6-5.5,10.1-3.7,18.9-10,26.8-18.7,8.4-9.3,13.7-19.1,18.8-32.4,5-13.2,9.3-29.6,12.7-48.6l32.7-184.7h47.7s4,0,4.8-4.2l5.4-30.1c.4-2.9-.9-4.7-4.7-4.7h-46.3c.3-1,2.3-17.3,7.7-32.7,2.3-6.5,6.6-11.8,10.2-15.5,3.6-3.6,7.7-6.1,12.1-7.6,4.6-1.5,9.8-2.2,15.6-2.2s8.7.5,11.9,1.2c4.5,1,6.2,1.5,7.4,1.8,4.7,1.4,5.4,0,6.3-2.2l11.1-30.4c1.1-3.3-1.7-4.7-2.7-5.1M481.1,318.3c0,2.4-1.7,4.4-4.2,4.4h-38.4c-2.4,0-4.1-2-4.1-4.4V9c0-2.4,1.7-4.4,4.1-4.4h38.4c2.4,0,4.2,2,4.2,4.4v309.3Z"/>
      </g>
    </g>
  </g>
</svg>