<?xml version="1.0" encoding="UTF-8"?>
<svg xmlns="http://www.w3.org/2000/svg" version="1.1" viewBox="0 0 2240.8 444.9">
  <defs>
    <style>
      .cls-1 {
        fill: #0056a2;
      }

      .cls-2 {
        fill: #0094dd;
      }
    </style>
  </defs>
  <!-- Generator: Adobe Illustrator 28.7.1, SVG Export Plug-In . SVG Version: 1.2.0 Build 142)  -->
  <g>
    <g id="Layer_1">
      <g>
        <path class="cls-2" d="M323.4,426.4c-17,8.3-51.2,18.5-102,18.5C80.7,444.9,0,348.1,0,224.7S102.9,0,230.7,0s75.8,9.5,92.6,18.5l-15.6,87.9c-18.8-8.3-38.7-15.9-73.1-15.9-60.9,0-125.5,36.2-125.5,132.6s51.5,131.9,126,131.9,49.5-5.8,72.6-16.4l15.6,87.8h0ZM802,306.4c3.5,40.2,36.9,61.6,88.4,62.1,31.1.2,67.2-8.8,91.2-23l14.4,74.2c-36.2,18.2-77.6,25.2-119.7,25.2-113.5,0-174.3-68.2-174.3-172.8s65.4-166.4,163.4-166.4,146.3,74.4,146.3,167.5-1.2,25.8-2.3,33.1h-207.4M916.6,238.5c0-23.4-11.4-64.2-55.5-64.2s-56.9,33.3-59.6,64.2h115.2,0ZM1123.8,431.6l-105.3-312.7h105.2l57.2,221.2h1.9l57.2-221.2h105.2l-105.3,312.7h-116.1ZM1372.2,221.8c0-46-1.4-76-3.4-102.8h89.8l2.7,58.1h2.4c15.7-46,45.9-63.5,76.9-65.2,14.7-.9,22.7.2,31.9,2v91.4c-8.7-1.7-26.1-3.7-38.3-2.6-36.7,3.4-58.9,30.1-65.1,60.8-1.2,6.4-1.9,13.4-1.9,21.7v146.5h-95v-209.8h0,0ZM1907.5,275.3c0,102.5-61.7,169.6-161.8,169.6s-161.8-67.1-161.8-169.6,61.8-169.6,161.8-169.6,161.8,67.1,161.8,169.6M1808.6,275.3c0-50.9-17.5-95.2-63-95.2s-62.9,44.3-62.9,95.2,17.4,95.1,62.9,95.1,63-44.2,63-95.1h0ZM1949.9,218.7c0-39-1.4-72.3-3.4-99.7h89.8l2.1,43.7h1.9c12.4-20.3,45.3-53.8,96.7-53.8s103.9,42.9,103.9,134.9v187.7h-95.2v-173.4c0-40.2-13.8-67.7-48.3-67.7s-42.8,18.6-48.9,36.4c-2.3,6.5-3.2,15.4-3.2,24.3v180.4h-95.3v-213h0ZM556.9,109c-37.9,0-74.6,17.2-93.2,44.8h-1.1V1.5l-95.3,33v397.1h95.3v-185.5c0-26.8,17.4-55.6,50.8-55.6s49.5,28.1,49.5,69v172.1h95.4v-185.2c0-94.6-40.6-137.5-101.3-137.5h0Z"/>
        <path class="cls-1" d="M323.4,426.4c-17,8.3-51.2,18.5-102,18.5C80.7,444.9,0,348.1,0,224.7S102.9,0,230.7,0s75.8,9.5,92.6,18.5l-15.6,87.9c-18.8-8.3-38.7-15.9-73.1-15.9-60.9,0-125.5,36.2-125.5,132.6s51.5,131.9,126,131.9,49.5-5.8,72.6-16.4l15.6,87.8h0ZM802,306.4c3.5,40.2,36.9,61.6,88.4,62.1,31.1.2,67.2-8.8,91.2-23l14.4,74.2c-36.2,18.2-77.6,25.2-119.7,25.2-113.5,0-174.3-68.2-174.3-172.8s65.4-166.4,163.4-166.4,146.3,74.4,146.3,167.5-1.2,25.8-2.3,33.1h-207.4M916.6,238.5c0-23.4-11.4-64.2-55.5-64.2s-56.9,33.3-59.6,64.2h115.2,0ZM1123.8,431.6l-105.3-312.7h105.2l57.2,221.2h1.9l57.2-221.2h105.2l-105.3,312.7h-116.1ZM1372.2,221.8c0-46-1.4-76-3.4-102.8h89.8l2.7,58.1h2.4c15.7-46,45.9-63.5,76.9-65.2,14.7-.9,22.7.2,31.9,2v91.4c-8.7-1.7-26.1-3.7-38.3-2.6-36.7,3.4-58.9,30.1-65.1,60.8-1.2,6.4-1.9,13.4-1.9,21.7v146.5h-95v-209.8h0,0ZM1907.5,275.3c0,102.5-61.7,169.6-161.8,169.6s-161.8-67.1-161.8-169.6,61.8-169.6,161.8-169.6,161.8,67.1,161.8,169.6M1808.6,275.3c0-50.9-17.5-95.2-63-95.2s-62.9,44.3-62.9,95.2,17.4,95.1,62.9,95.1,63-44.2,63-95.1h0ZM1949.9,218.7c0-39-1.4-72.3-3.4-99.7h89.8l2.1,43.7h1.9c12.4-20.3,45.3-53.8,96.7-53.8s103.9,42.9,103.9,134.9v187.7h-95.2v-173.4c0-40.2-13.8-67.7-48.3-67.7s-42.8,18.6-48.9,36.4c-2.3,6.5-3.2,15.4-3.2,24.3v180.4h-95.3v-213h0ZM556.9,109c-37.9,0-74.6,17.2-93.2,44.8h-1.1V1.5l-95.3,33v397.1h95.3v-185.5c0-26.8,17.4-55.6,50.8-55.6s49.5,28.1,49.5,69v172.1h95.4v-185.2c0-94.6-40.6-137.5-101.3-137.5h0Z"/>
      </g>
    </g>
  </g>
</svg>