<?xml version="1.0" encoding="UTF-8"?>
<svg xmlns="http://www.w3.org/2000/svg" version="1.1" viewBox="0 0 2426.4 432.9">
  <defs>
    <style>
      .cls-1 {
        fill: #cf4044;
        fill-rule: evenodd;
      }
    </style>
  </defs>
  <!-- Generator: Adobe Illustrator 28.7.1, SVG Export Plug-In . SVG Version: 1.2.0 Build 142)  -->
  <g>
    <g id="Layer_1">
      <path class="cls-1" d="M183.5,156.5c-9.6,11.6-20,25.4-20,46.3,0,38.9,22.4,69.4,62.4,69.4s63.6-54.3,63.6-80.2-.2-5.9-.5-8.6c14.1-2.2,28.2-8.1,41.4-16.7h0c.6,25.9,1.4,51,1.4,62.3-.4,35.8,2.3,40.1,13.5,40.1s18.5-24.3,29.7-47.4c13.1-28.9,27-57.8,35.5-57.8,15.8,0-12.7,106.8,25.4,106.8,27,0,67.1-108.3,84.4-108.3s-13.9,108.3,16.2,108.3c22,0,59.4-110.2,72.1-110.2s-13.9,110.2,25.1,110.2,63.6-90.6,73.2-90.6,13.3,12.1,19.5,28.8v.4c-12.2,15.2-19.9,29.7-19.9,40.6s10.8,20.8,21.6,20.8c16.2,0,32-17.3,32-42.4s-.4-20.2-6.3-35.2v-.2c24.3-22.5,55.6-42,74.6-45.2-10.8,12.3-30.5,23.1-30.5,58.2s28.9,66.7,65.9,66.7,63.2-55.5,63.2-77.1-1-14.9-2.8-21.3h0c17.7-8.2,31-20,36-20,10.8,0,6.6,32.8,6.6,66.7s-3.9,51.6,15,51.6,21.2-28.1,35.5-53.2c13.9-24.7,28.9-58.2,34.7-58.2s4.6,51.7,4.6,61.7-2.3,52.8,23.9,52.8,50.9-49.7,50.9-56.3,0-4.3-2.7-4.3-23.1,33.5-31.2,33.5c-11.6,0-4.2-42.8-4.2-74.4s1.9-44.7-21.2-44.7-57.8,82.5-66.7,82.5c-8.5,0,12.3-79.4-24.3-79.4s-37,20.2-61.2,30.6h.1c-8.9-17.4-24.9-26.4-40.3-26.4s-19.7,8.5-19.7,17.3,9.6,28.1,32,28.1,12.1-1,17.8-2.6h.3c2,6.7,3.1,13.2,3.1,18.4,0,20.4-13.9,47-40.5,47s-39.3-22-39.3-48.9c0-44,26.6-51.3,26.6-60.1s-3.1-4.6-8.9-4.6c-29.7,0-70.6,24.6-101.3,52.9h-.1c-1.1-1.9-2.2-3.7-3.4-5.5-29.7-42.4-18.1-51.6-25.8-51.6s-52.8,117.6-69.8,117.6,18.5-113.3-25-113.3-54,89-67.1,89,12.7-89-24.3-89-66.3,106.4-83.6,106.4,13.5-104.8-20.4-104.8-57.8,82.1-65.9,82.1-5.3-25.6-5-72.7v-.3c26.7-28.5,45.1-67.6,45.1-104.7,0-17.3-8.5-30.8-24.7-30.8-31.6,0-50.1,50.1-50.1,105.2s.3,27.4.6,43.1v.2c-14.8,10.8-28.6,16.4-36.5,16.4h-7.1s0,0,0,0c-7.3-23.8-26.9-34.4-41.1-34.4s-20,10.4-20,19.3c0,13.1,11.6,26.9,48.2,27.7h0c.9,4.5,1.4,9,1.5,13.5,0,20.4-15,48.2-41.6,48.2s-40.5-26.2-40.5-55.1,24.7-48.6,24.7-51.3-.4-3.1-1.2-3.1c-24.5,0-64.4,27-102,66.1h0c-4.3-32.4-9.3-70.6-9.3-115.4,0-64.8,12-73.2,12-81.7S116,0,109.5,0C94.8,0,0,42.8,0,137.6s40.1,105.3,66,125c-27.7,41.2-47.5,86.4-47.5,125.9s8.9,44.3,25.4,44.3c26.2,0,76.3-55.5,76.3-169.2,0-14.9-1.9-32-4.4-51.2h0c22.5-23.8,46.5-43.3,67.6-56h0ZM2199.9,168h0c-4.9-9.6-11.8-16.9-20.2-16.9s-7.3,3.9-7.3,6.9c0,6.9,6.6,11.2,16.6,11.2,3.7,0,7.3-.4,10.9-1.2ZM1366.1,254.9c4.8-6.9,9.9-13.6,15.1-20.1l.3-.6c-6.3-33.6-13.1-66-13.1-90,0-68.2,29.7-116.8,29.7-127.2s1.2-8.1-3.9-8.1-71.3,28.9-71.3,131.1c0,41.2,19.2,91.6,43.2,115h0ZM1360.7,262.7c-9.6-7.3-18.5-19.8-32-29.1-11.5-7.8-41.6.7-67.8,5.4h0c-2.3,15.1-7.5,30.1-12.7,30.1s-4.9-12-9.1-25.8l-.3-.2c-11.7,2.1-21.6,3.6-27.6,3.6-18.1,0-59.8-8.1-59.8-35.5s17.4-21.6,33.9-21.6,48.9,13.5,56.3,28.1c1.9-26.2-17-40.5-17-44.7s20.4-11.9,22.4-11.9c8.1,0,15,37,15,63.2s0,2.5-.1,3.8h0c20.8-4.1,43.1-8.5,57.5-6.5-13.9-19.7-24.3-46.6-24.3-84,0-94.8,94.4-137.6,109.1-137.6s8.1,1.5,8.1,5.4c0,8.5-12.3,17-12.3,81.7s5.1,83.1,9.3,115.5c37.6-39.1,77.6-66.1,102.1-66.1s1.1,1.5,1.1,3.1c0,2.7-24.7,14.3-24.6,51.3,0,28.9,17.7,55.1,40.8,55.1s41.3-27.8,41.3-48.2-.5-8.7-1.5-13.5h0c-36.6-.8-48.2-14.6-48.2-27.7s8.9-19.3,20.4-19.3,33.4,10.6,40.7,34.3h7.1c7.9,0,21.8-5.7,36.5-16.5h0c-.4-14.5-.6-28.9-.6-43.3,0-55.1,18.5-105.2,50.1-105.2,16.2,0,24.7,13.5,24.7,30.8,0,37-18.5,76.1-45,104.7v.3c-.4,47.1-1.9,72.8,4.9,72.8s33.5-82.1,65.9-82.1,6.2,104.8,20.4,104.8,57-106.4,83.6-106.4,11.6,89,24.3,89,32.7-89,67.1-89,2.7,113.3,25.1,113.3,60.1-117.6,69.8-117.6-3.9,9.2,25.8,51.6c1.3,1.8,2.4,3.6,3.5,5.5h.2c30.7-28.3,71.7-52.9,101.6-52.9s8.5.8,8.5,4.6c0,8.9-26.6,16.2-26.6,60.1s18.5,48.9,39.3,48.9,40.5-26.6,40.5-47-1.1-11.7-3.1-18.3h-.2c-5.7,1.6-11.6,2.4-17.5,2.5-22.7,0-32.4-16.2-32.4-28.1s8.5-17.3,19.7-17.3,31.4,8.9,40.3,26.3h0c24.1-10.4,46.2-30.5,61-30.5,36.6,0,15.8,79.4,24.3,79.4s37.4-82.5,66.7-82.5,21.2,30.8,21.2,44.7c0,31.6-7.3,74.4,4.3,74.4s28.5-33.5,31.2-33.5,3.1.8,3.1,4.3c0,6.5-33.2,56.3-51.3,56.3-26.2,0-23.9-40.1-23.9-52.8s3.1-61.7-4.6-61.7-20.8,33.5-34.7,58.2c-14.2,25.1-21.2,53.2-35.4,53.2s-15-26.2-15-51.6,4.2-66.7-6.5-66.7-18.4,11.8-35.9,20.1h0c1.8,6.3,2.8,13.4,2.8,21.2,0,21.6-11.2,77.1-63.2,77.1s-65.9-28.9-65.9-66.7,19.7-45.9,30.9-58.2c-19.2,3.2-50.6,22.7-74.8,45.2v.2c5.8,15,6.2,29.9,6.2,35.1,0,25.1-15.8,42.4-32,42.4-10.8,0-21.6-6.9-21.6-20.8s7.7-25.5,19.9-40.7h0c-6.2-16.9-14.9-29.1-19.6-29.1-9.6,0-37.8,90.6-73.2,90.6s-12-110.2-25.1-110.2-50.1,110.2-71.7,110.2-3.1-108.3-16.6-108.3-57.4,108.3-84.4,108.3-9.6-106.8-25.4-106.8-22.4,28.9-35.5,57.8c-11.2,23.1-17.7,47.4-29.7,47.4s-13.5-4.3-13.5-40.1-.7-36.4-1.4-62.3h0c-13.2,8.5-27.3,14.4-41.4,16.6h0c.3,2.8.5,5.7.5,8.7,0,25.8-10.4,80.2-63.6,80.2s-62.1-30.5-62.1-69.4,10-34.7,19.7-46.3c-21,12.7-45.1,32.2-67.5,55.8v.3c2.4,19.2,4.3,36.1,4.3,51,0,113.7-49.7,169.2-76.3,169.2s-25.5-22-25.5-44.3c0-39.5,19.7-84.8,47.5-125.9h0ZM2024.7,219.7h-.1c-6.6,9.5-10.6,18.5-10.6,26.2s1.5,12.3,6.2,12.3,8.1-5.4,8.1-12.7-1.4-17.5-3.6-25.8h0ZM1654,126.6c16.3-21.1,28.9-49.2,28.9-83.4s-1.2-25.4-9.6-25.4c-21.7,0-19.5,80.5-19.3,108.9h0ZM1564.5,171.3h0c-4.1-9.8-10.6-17.5-19.6-17.5s-6.2,2.3-6.2,5.4c0,8.6,12.2,11.3,25.7,12.1ZM1383.4,244.5h-.1c-29.8,39.1-51.9,84.6-51.9,127.8s0,35.5,19.7,35.5,41.3-36.3,41.3-86.7-4.1-50.1-8.9-76.5h0ZM1235.2,233.1l.2-.2c-6.7-16.4-18.5-32.1-42.4-32.1s-10,5.8-10,12.7c0,12.7,20,20.8,38.6,20.8,3.8,0,8.5-.5,13.7-1.2ZM905.1,168c-3.6.8-7.2,1.2-10.8,1.2-10.4,0-16.6-4.2-16.6-11.2s3.5-6.9,7.3-6.9c8.3,0,15.3,7.3,20.2,16.8v.2h0ZM729.9,219.9c2.2,8.2,3.6,17,3.6,25.7s-3.9,12.7-8.1,12.7-6.2-4.6-6.2-12.3,4-16.7,10.5-26.1h.2s0,0,0,0ZM359.2,126.5c-.2-28.5-2.4-108.8,19.3-108.8s9.6,9.2,9.6,25.4c0,34.2-12.6,62.3-28.9,83.4h0ZM269.7,171.3c-13.5-.8-25.8-3.5-25.8-12.1s2.3-5.4,6.2-5.4c9,0,15.5,7.7,19.6,17.4h0ZM86.6,234.5c-5.3,6.6-10.4,13.4-15.3,20.4h0c-24-23.4-43.2-73.8-43.2-115C28.1,37.8,96,8.9,99.4,8.9c5,0,3.5,1.2,3.5,8.1,0,10.4-29.3,59-29.3,127.2s6.7,56.4,13.1,90v.3ZM88.6,244.4c4.8,26.4,8.9,53.1,8.9,76.7,0,50.5-17,86.7-41.2,86.7s-19.7-21.2-19.7-35.5c0-43.3,22.2-88.8,51.9-127.9h0Z"/>
    </g>
  </g>
</svg>