<?xml version="1.0" encoding="UTF-8"?>
<svg id="Layer_1" xmlns="http://www.w3.org/2000/svg" version="1.1" viewBox="0 0 16.5 5.1">
  <!-- Generator: Adobe Illustrator 29.0.0, SVG Export Plug-In . SVG Version: 2.1.0 Build 186)  -->
  <defs>
    <style>
      .st0 {
        fill: #ed1d24;
      }
    </style>
  </defs>
  <path class="st0" d="M10,2.8c0,0,.1,0,.2-.1.4-.3.7-.7.8-.9,0,0,0,0,0,0,0,0,0,0,0,0-.2,0-.8.6-.9,1.1h0s0,0,0,0ZM8.5,2.7c.6-.4,1.2-1,1.2-1.3,0,0,0,0,0,0,0,0,0,0,0,0-.2,0-1,.8-1.2,1.4M5,3.1c-.1-.1-.4-.2-.6-.2s-.3,0-.3.2.2.2.3.2.4,0,.6-.1M6.7,1.7c.4-.1.8-.4,1.1-.7.3-.3.5-.6.5-.7s0,0,0,0c-.1,0-.4.2-.7.5-.2.2-.5.6-.8,1M12.8,2.7c-.3.3-1.4,1.3-1.7,2.1h-.4c.1-.4.5-.9.9-1.3,0,0-.2,0-.2,0-.1,0-.2,0-.2,0,0,0,0,0,0-.2s0,0,0,0c-.3.2-.6.3-.9.3s-.4,0-.5-.3c-.3.2-.7.3-.9.3s-.5-.1-.6-.3c-.3.2-.6.3-.9.3s-.2,0-.3-.1c0,0,0-.1,0-.2-.2.1-.5.3-.9.3s-.6-.1-.7-.2c-.3.2-.6.2-.9.2s-.6-.1-.6-.5c0-.3.3-.5.7-.5s.7.1.9.3c.2-.2.4-.4.6-.7,0,0-.1,0-.2,0-.5,0-.8-.1-1.1-.4-.1-.1-.2-.3-.2-.4,0-.6.8-1.1,1.5-1.2,0,.1,0,.2.1.3-.7,0-1.3.5-1.3.9s.3.5.9.5.2,0,.3,0c.6-.8,1.4-2,2.2-2s.3.1.3.3c0,.4-.3.8-.5,1-.3.3-.9.8-1.7,1-.3.4-.6.7-.8.9.2,0,.3.1.5.1.4,0,.9-.4,1.2-.7h0s.3.2.3.2h0c-.1.2-.3.4-.3.5s0,0,.1,0c.2,0,.4-.1.7-.3h0c0-.8,1.1-1.9,1.7-1.9s.3,0,.3.2c0,.4-.6,1.2-1.6,1.8h0c0,.1.2.2.4.2s.4,0,.8-.2c0-.4.3-.8.5-1.1.3-.3.6-.5.9-.5s.3,0,.3.2c0,.3-.4.9-1.3,1.5,0,0,.1.1.2.1.3,0,.8-.3,1.1-.6l.3.2c-.1.1-.2.3-.2.4,0,0,0,0,0,0,.3,0,.7-.4,1-.7l.3.2ZM7.8,2c.1,0,.2,0,.2.2s0,.2-.2.2-.2,0-.2-.2,0-.2.2-.2c0,0,0,0,0,0"/>
</svg>