<?xml version="1.0" encoding="UTF-8"?>
<svg xmlns="http://www.w3.org/2000/svg" version="1.1" viewBox="0 0 2132.3 636.9">
  <defs>
    <style>
      .cls-1 {
        fill: #fff;
      }

      .cls-1, .cls-2 {
        fill-rule: evenodd;
      }

      .cls-2 {
        fill: #1b9b94;
      }
    </style>
  </defs>
  <!-- Generator: Adobe Illustrator 28.7.1, SVG Export Plug-In . SVG Version: 1.2.0 Build 142)  -->
  <g>
    <g id="Layer_1">
      <g id="Layer_1-2" data-name="Layer_1">
        <g>
          <path class="cls-2" d="M479.3,159.2C479.3,71.4,407.9,0,320.1,0s-160.1,71.4-160.1,159.2h319.3ZM479.3,476.9c0,87.8-71.4,160-159.2,160s-160.1-72.2-160.1-160h319.3ZM302.9,317.6c-80.4,8.2-143.6,78-143.6,160C71.4,477.7,0,406.3,0,318.5s71.4-160,159.2-160c0,82.9,63.2,151.8,143.6,159.2h.1ZM338.2,317.6c80.4,8.2,143.6,78,143.6,160,87.8,0,159.2-71.4,159.2-159.2s-71.4-160-160-160c0,82.9-62.4,151.8-142.8,159.2h0Z"/>
          <path class="cls-1" d="M1412.6,213.4h35.3c12.3,0,38.6-.8,38.6,31.2s-18.1,40.2-38.6,40.2h-35.3v9.8l106.7,165.8h89.5l-93.6-138.7c49.2-23.8,51.7-59.9,51.7-86.2,0-75.5-61.6-85.4-85.4-85.4h-144.4v310.2h75.5v-247h0Z"/>
          <path class="cls-1" d="M1827.9,375.1c-23.8,23-48.4,25.5-87,25.5s-86.2-40.2-86.2-96,38.6-101.8,86.2-101.8,64,8.2,87,28.7v-74.7c-24.6-14-55-20.5-87-20.5-91.9,0-165.8,55.8-165.8,168.3s73.9,165.8,165.8,165.8,66.5-4.9,87.8-15.6l-.8-79.6h0ZM1847.5,460.5V150.2h76.4v134.6l100.1-134.6h90.3l-96.9,142.8,114.9,167.4h-95.2l-113.3-164.2v164.2h-76.4,0ZM778.1,460.5h73v-203.5l92.7,212.6,94.4-214.2v205.2h75.5V150.2h-111.6l-58.3,137.1-59.1-137.1h-106.7v310.2h0ZM1134.3,150.2h186.3v63.2h-110v56.6h100.1v64h-100.1v62.4h110v64h-186.3V150.2h0Z"/>
        </g>
      </g>
    </g>
  </g>
</svg>