<?xml version="1.0" encoding="UTF-8"?>
<svg id="Layer_1" xmlns="http://www.w3.org/2000/svg" viewBox="0 0 1652.3 447.78">
  <defs>
    <style>
      .cls-1 {
        fill: #30528e;
        fill-rule: evenodd;
      }
    </style>
  </defs>
  <path class="cls-1" d="M801.7,295.19v-108.3c0-19.21,0-52.4-64.63-52.4-22.7,0-40.18,5.24-48.91,6.99-10.48,3.49-13.98,8.73-13.98,13.97v139.73c0,5.24,1.75,6.99,5.24,6.99h15.72c5.24,0,6.98-1.75,6.98-6.99v-129.25c0-7,12.23-13.97,34.93-13.97,36.68,0,36.68,22.7,36.68,38.41v104.79c0,5.25,1.75,7,6.98,7h17.47c3.5-1.74,3.5-3.49,3.5-6.98h0ZM967.62,220.08c0-36.68-10.46-61.14-29.7-73.36-10.47-8.73-26.2-12.23-40.16-12.23-15.73,0-29.7,3.49-41.93,12.23-17.46,12.22-29.69,36.67-29.69,73.36s12.23,62.87,29.69,75.11c12.23,6.99,26.2,10.48,41.93,10.48,13.97,0,29.7-3.49,40.16-10.48,19.23-12.24,29.7-36.68,29.7-75.11h0ZM939.68,220.08c0,29.7-6.97,48.9-15.71,57.64-8.73,8.71-15.71,10.46-26.2,10.46-12.23,0-19.21-1.75-27.94-10.46-8.74-8.73-15.71-27.95-15.71-57.64s6.98-48.9,15.71-57.64c8.73-6.99,15.71-10.46,27.94-10.46,10.49,0,17.46,3.47,26.2,10.46,8.74,8.75,15.71,27.96,15.71,57.64h0ZM1081.16,150.23c0-10.49-19.21-15.73-41.93-15.73-15.71,0-27.95,3.49-34.92,5.24-10.49,1.75-15.73,7-15.73,12.24v144.96c0,3.49,3.49,5.24,7,5.24h15.71c3.49,0,7-1.75,7-5.24v-132.74c0-8.74,5.24-13.97,15.73-13.97,19.21,0,22.71,13.97,33.17,13.97,6.99-.01,13.99-3.5,13.99-13.97h0ZM1219.14,284.7V85.59c0-5.25-1.75-5.25-5.24-5.25h-15.73c-5.25,0-6.98,1.75-6.98,7v55.89c-8.73-5.24-19.23-8.73-33.19-8.73-48.9,0-75.1,47.16-75.1,85.59,0,57.64,31.44,85.59,80.35,85.59,22.7-.01,55.89-10.5,55.89-20.98h0ZM1191.2,274.23c0,8.71-12.24,13.97-27.94,13.97-29.7,0-50.65-26.2-50.65-69.86,0-38.43,19.21-64.64,48.9-64.64,15.71,0,24.46,5.24,29.7,10.48v110.05ZM1287.26,92.58c.02-4.17-1.63-8.19-4.59-11.14-2.95-2.96-6.97-4.61-11.14-4.59-10.46,0-17.46,7-17.46,17.48,0,8.71,7,15.71,17.46,15.71s17.48-8.75,15.73-17.46h0ZM1285.52,295.19v-150.2c0-5.25-1.75-7-6.99-7h-15.71c-5.24,0-5.24,1.75-5.24,7v150.2c0,5.24,0,6.99,3.49,6.99h17.46c5.24,0,6.99-1.75,6.99-6.99h0ZM1564.96,298.68c0-1.75-1.75-3.49-1.75-5.24l-61.12-78.6c20.95-15.71,43.66-40.16,55.89-66.38,1.73-3.47,1.73-5.23,1.73-6.98,0-3.49-1.73-3.49-5.22-3.49h-13.99c-6.98,0-8.71,0-10.47,5.24-8.73,26.2-31.44,55.89-55.89,69.86l-1.75,1.75,1.75,1.75,55.89,80.35q3.49,5.24,8.72,5.24h22.72s3.48-1.76,3.48-3.51h0ZM1468.91,296.94V83.85c0-5.24-1.75-5.24-7-5.24h-15.71c-3.49,0-5.24,0-5.24,5.24v213.09c0,3.49,0,5.24,5.24,5.24h15.71c5.24,0,7,0,7-5.24h0ZM1418.25,256.75c0-52.38-76.84-43.66-76.84-78.58,0-12.23,8.71-24.47,26.19-24.47,19.21,0,22.7,12.24,33.19,12.24,3.49,0,10.47-3.49,10.47-12.24,0-12.22-19.21-19.21-41.92-19.21-27.95,0-54.14,15.73-54.14,45.41,0,27.94,19.21,38.43,41.91,48.9,19.21,7,36.68,13.99,36.68,31.44,0,13.98-10.49,27.95-33.19,27.95s-27.95-15.71-38.41-15.71c-5.24,0-12.23,1.75-12.23,10.47,0,12.23,24.45,22.72,50.65,22.72,27.95,0,57.65-13.97,57.65-48.91h0ZM127.51,295.19v-108.3c0-19.21-1.75-52.4-64.63-52.4-24.45,0-40.18,5.24-48.91,6.99-10.48,3.49-13.97,8.73-13.97,13.97v139.73c0,5.24,1.75,6.99,5.23,6.99h15.72c5.24,0,6.98-1.75,6.98-6.99v-129.25c0-7,12.23-13.97,33.19-13.97,38.42,0,38.42,22.7,38.42,38.41v104.79c0,5.25,1.75,7,6.99,7h15.71c3.5-1.74,5.25-3.49,5.25-6.98h0ZM293.43,220.08c0-36.68-12.21-61.14-29.69-73.36-12.23-8.73-26.2-12.23-41.92-12.23-13.97,0-29.69,3.49-40.16,12.23-19.22,12.22-29.69,36.67-29.69,73.36s10.48,62.87,29.69,75.11c10.48,6.99,26.19,10.48,40.16,10.48,15.72,0,29.7-3.49,41.92-10.48,17.47-12.24,29.69-36.68,29.69-75.11h0ZM265.49,220.08c0,29.7-6.98,48.9-15.72,57.64-8.73,8.71-15.72,10.46-27.96,10.46-10.48,0-17.46-1.75-26.19-10.46-8.73-8.73-15.72-27.95-15.72-57.64s6.98-48.9,15.72-57.64c8.73-6.99,15.72-10.46,26.19-10.46,12.23,0,19.21,3.47,27.96,10.46,8.73,8.75,15.72,27.96,15.72,57.64h0ZM581.62,220.08c0-36.68-12.23-61.14-29.7-73.36-12.23-8.73-26.2-12.23-41.91-12.23-13.98,0-29.7,3.49-40.17,12.23-19.21,12.22-29.69,36.67-29.69,73.36s10.49,62.87,29.69,75.11c10.49,6.99,26.21,10.48,40.17,10.48,15.72,0,29.69-3.49,41.91-10.48,17.47-12.24,29.7-36.68,29.7-75.11h0ZM553.68,220.08c0,29.7-6.98,48.9-15.72,57.64-8.74,8.71-15.72,10.46-27.95,10.46-10.49,0-17.47-1.75-26.19-10.46-8.73-8.73-15.72-27.95-15.72-57.64s7-48.9,15.72-57.64c8.72-6.99,15.72-10.46,26.19-10.46,12.23,0,19.21,3.47,27.95,10.46,8.73,8.75,15.72,27.96,15.72,57.64h0ZM436.65,141.48c0-3.49-1.74-3.49-3.49-3.49h-15.72c-3.49,0-3.49,1.75-3.49,5.24l-41.92,118.76-41.92-118.76c-1.75-5.24-3.49-5.24-6.98-5.24h-19.21c-1.74,0-5.24,0-5.24,3.49,0,1.75,0,3.49,1.75,5.24l57.64,150.2c0,3.49,1.75,3.49,3.5,5.24h12.22c3.5,0,5.24-1.75,6.99-5.24l54.15-150.2c1.74-3.49,1.74-5.24,1.74-5.24h0ZM1587.68,430.32h10.47c5.24,0,13.99,0,13.99,8.71s-8.73,8.74-13.99,8.74h-10.47v-17.45ZM1578.95,78.6h8.73v-22.7h5.23c6.99,0,10.48,1.75,17.48,13.99l3.47,8.72h12.24l-6.99-10.47c-6.98-10.49-10.47-12.24-13.97-13.99,12.21,0,15.71-8.73,15.71-15.71,0-3.49-1.75-6.99-5.24-10.48-3.47-3.49-10.46-3.49-17.46-3.49h-19.21v54.14h.02ZM1601.65,0c-27.94,0-50.65,22.7-50.65,50.65s22.7,50.65,50.65,50.65,50.65-22.7,50.65-50.65S1629.6,0,1601.65,0h0ZM1601.65,8.75c22.7,0,41.92,19.21,41.92,41.91s-19.21,41.94-41.92,41.94-41.93-19.23-41.93-41.94,19.23-41.91,41.93-41.91h0ZM1601.65,407.62"/>
</svg>