<?xml version="1.0" encoding="UTF-8"?>
<svg xmlns="http://www.w3.org/2000/svg" version="1.1" viewBox="0 0 2279.4 291">
  <defs>
    <style>
      .cls-1 {
        fill: #e32024;
      }

      .cls-1, .cls-2 {
        fill-rule: evenodd;
      }
    </style>
  </defs>
  <!-- Generator: Adobe Illustrator 28.7.1, SVG Export Plug-In . SVG Version: 1.2.0 Build 142)  -->
  <g>
    <g id="Layer_1">
      <g id="Layer_1-2" data-name="Layer_1">
        <g>
          <path class="cls-1" d="M1594.7,4.2h46.8v239.9h203l-29.8,46.9h-220.1V4.2h0ZM1227,291L1053.8,17.7c-10.6-17.7-39-17.7-51.1.7l-171.8,272.6h56.8l51.8-82.4h110.7l29.1-46.9h-110.7l60.3-94.4,141.3,223.6h56.8,0ZM1332.4,4.3c-79.1,0-131.2,64.2-131.2,143.3s52.1,143.3,131.2,143.3l192.4-.2,30.1-46.5h-221.1c-53.3,0-84.6-43.3-84.6-96.6s31.2-96.6,84.6-96.6h197l29.1-46.8h-227.5ZM131.3,51h203c53.4,0,84.6,43.3,84.6,96.6s-31.2,96.6-84.6,96.6h-203c-53.4,0-84.6-43.3-84.6-96.6s31.2-96.6,84.6-96.6h0ZM131.3,4.3C52.1,4.3,0,68.5,0,147.6s52.1,143.3,131.3,143.3h203c79.2,0,131.3-64.2,131.3-143.3S413.4,4.3,334.3,4.3h-203,0ZM1894.7,170.4c7.6,42.4,36.8,73.9,82.4,73.9h221.1l-30.1,46.5-192.4.2c-79.2,0-131.2-64.2-131.2-143.3S1896.5,4.3,1975.6,4.3h227.5c0,0-29.1,46.7-29.1,46.7h-197c-44.9,0-74.2,31-82.4,72.5h277.9l-29.8,46.9h-248.1,0ZM730.4,174.5c47-.8,84.4-39.6,83.6-86.6-.8-45.8-37.8-82.8-83.6-83.6h-238.9c0,0,0,286.7,0,286.7h52.5V51h186.3c21.2,0,38.4,17.2,38.4,38.4s-17.2,38.3-38.4,38.4h-149.4l168.6,162.9h67.8l-120.7-116.1h33.8ZM2252.2,4.5c12.2,0,21.8,9.6,21.8,22.4s-9.6,22.5-21.8,22.5-21.9-9.5-21.9-22.5,9.6-22.4,21.9-22.4V0c-14.8,0-27.4,11.4-27.4,26.9s12.5,27,27.4,27,27.2-11.4,27.2-27S2266.9,0,2252.2,0c0,0,0,4.5,0,4.5Z"/>
          <path class="cls-2" d="M2246.5,15.4h6.4c3.3,0,6.8.7,6.8,4.6s-3.6,5.1-7.6,5.1h-5.6v4h5.4l8.2,13.5h5.3l-8.8-13.7c4.6-.6,8.1-3,8.1-8.5s-3.6-8.8-11-8.8h-11.9v31.1h4.7V15.4h0Z"/>
        </g>
      </g>
    </g>
  </g>
</svg>