<?xml version="1.0" encoding="UTF-8"?>
<svg id="Layer_1" xmlns="http://www.w3.org/2000/svg" viewBox="0 0 268.72 67.68">
  <defs>
    <style>
      .cls-1 {
        fill: #e60012;
      }
    </style>
  </defs>
  <path class="cls-1" d="M45.2,19.85v-7.17l-15.02.14c-1.91,0-1.8-.41-1.8-2.89l.16-9.8-7.59-.13c-2.33,5.23-5.22,8.68-6.87,9.36L0,15.57v4.42l5.27.13c2.34,0,3.3-.13,3.3,2.63v29.07c0,8.83,4.81,15.31,17.24,15.6,9.34.26,15.01-3.88,18.99-7.75l-1.09-3.72c-1.67,1.12-3.02,2.08-5.25,2.08-10.6,0-10.32-8.28-10.32-15.58v-19.7c0-2.9.24-2.9,2.19-2.9h14.87ZM74.43,66.72c12.14-.57,23.84-3.18,23.84-14.9,0-8.52-9.35-13.92-19.28-18.19-6.36-2.62-15.58-6.47-15.58-9.52,0-3.57,7.02-10.47,13.77-4.96l11.73,9.8,5.38-1.12-3.02-14.59c-2.77.13-4.7.28-14.78-1.4-12.41-1.78-27.15,4.43-27.15,15.99,0,7.75,11.18,13.11,20.01,16.69,4.81,2.06,13.37,5.11,13.37,9.79s-8.01,5.79-12.55,5.79c-7.72,0-16.28-10.35-16.28-10.35h-5.08l2.75,15.46c.94-.84,4.42-.72,5.11-.42,2.46.94,11.41,2.34,17.75,1.93h0ZM105.44,51.96c0,8.55-2.19,13.09-9.1,13.49l.17,1.4c11.54-.13,23.3,0,34.57-.26l.13-.72c-5.21,0-9.23-5.51-9.23-12.37v-23.03c0-5.67,6.89-9.25,11.58-8.83,7.28.68,11.3,5.36,11.3,9.51v22.61c0,6.89-2.07,11.16-7.44,11.56v1.27h31.69v-.97c-4.69-.57-7.99-4.85-7.99-11.31v-23.73c0-5.07,4.41-8.52,12.27-8.65,6.9-.14,11.02,4.97,11.02,9.8v21.48c0,7.31-2.2,11.85-7.7,12.42v.97c11.57.13,21.07.13,32.5,0v-.72c-6.05,0-8.11-3.98-8.11-12.37v-23.73c0-7.85-4.27-17.23-16.27-17.23-8.12,0-14.09,3.97-17.49,5.13-2.35.92-4.01,2.04-4.57,2.04-1.08,0-2.31-.69-3.85-2.34-2.9-3.06-8.12-4.83-13.65-4.83-7.04,0-14.07,3.97-17.39,5.13-.39.11-2.86,1.35-3.16,1.35-.54,0-2.75,0-2.75-.26,0-6.63.42-3.33.15-8.01h-4.56c-1.36,0-3.73,2.49-6.48,3.56-3.31,1.41-9.93,1.26-12.66,1.96v4.68l7.14,1.37v9.11l-.13,20.53h0ZM241.58,11.99c-20.4,0-35.98,10.62-35.98,29.11,0,15.58,14.19,26.59,33.22,26.59,14.48,0,26.46-10.47,29.9-17.09,0-2.05-2.06-2.9-3.98-2.9-3.32,5.1-12.69,8.98-16.53,8.82-23.03-.83-26.75-10.06-27.03-19.7-.43-10.48,10.89-19.59,20.54-18.88,5.63.39,7.58,9.61,12.52,12.93,1.55.86,5.11.7,7.47.29,1.79-.29,6.59-1.38,6.59-5.52,0-3.44-4.27-7.31-8.38-9.79-4.13-1.91-13.38-3.86-18.34-3.86h0Z"/>
</svg>