<?xml version="1.0" encoding="UTF-8"?>
<svg id="Layer_1" xmlns="http://www.w3.org/2000/svg" xmlns:xlink="http://www.w3.org/1999/xlink" version="1.1" viewBox="0 0 65 20">
  <!-- Generator: Adobe Illustrator 29.0.0, SVG Export Plug-In . SVG Version: 2.1.0 Build 186)  -->
  <defs>
    <style>
      .st0 {
        fill: none;
      }

      .st1 {
        fill: #002677;
      }

      .st2 {
        clip-path: url(#clippath);
      }
    </style>
    <clipPath id="clippath">
      <rect class="st0" x="8.4" y="1" width="48.5" height="18"/>
    </clipPath>
  </defs>
  <g class="st2">
    <g>
      <path class="st1" d="M23.2,11v-6.6h2.9v6.4c0,1.5.9,2.4,2.2,2.4s2.2-.8,2.2-2.4v-6.4h2.9v6.6c0,2.7-2,4.7-5.1,4.7s-5.1-1.8-5.1-4.7ZM34.6,4.5h2.9v4.2h4.4v-4.2h2.9v11.1h-2.9v-4.4h-4.4v4.4h-2.9V4.5h0ZM45.7,10c0-3.4,2.7-5.7,5.9-5.7s4.5,1.3,5.4,3.3l-2.6,1.1c-.5-1.1-1.5-1.9-2.7-1.9s-3,1.3-3,3.2,1.3,3.2,3,3.2,2.2-.7,2.7-1.8l2.6,1.1c-.9,2-3,3.2-5.3,3.2s-5.9-2.3-5.9-5.7Z"/>
      <path class="st1" d="M11.3,18.2c.6.2,1.2.3,1.8.3,2.7,0,4.6-2,4.6-5.7V1.5l1-.5v11.9c0,3.8-2,6.1-4.8,6.1s-1.9-.3-2.7-.8h0ZM10.1,17c.6.2,1.3.3,1.8.3,2.3,0,3.8-1.4,3.8-4.7V2.4l1-.5v10.9c0,3.4-1.7,5.1-4.1,5.1s-1.8-.3-2.5-.9h0ZM9.4,16c.6.2,1.1.3,1.5.3,1.8,0,2.9-1,2.9-3.5V3.2l1-.5v9.8c0,2.9-1.3,4.2-3.2,4.2s-1.5-.3-2.2-.8h0ZM12.8,13V3.6l-4.4,2v7.6c0,1.5.9,2.4,2.3,2.4s2.2-1,2.2-2.7Z"/>
    </g>
  </g>
</svg>