<?xml version="1.0" encoding="UTF-8"?>
<svg xmlns="http://www.w3.org/2000/svg" xmlns:svg="http://www.w3.org/2000/svg" xmlns:sodipodi="http://sodipodi.sourceforge.net/DTD/sodipodi-0.dtd" xmlns:rdf="http://www.w3.org/1999/02/22-rdf-syntax-ns#" xmlns:inkscape="http://www.inkscape.org/namespaces/inkscape" xmlns:dc="http://purl.org/dc/elements/1.1/" xmlns:cc="http://creativecommons.org/ns#" version="1.1" viewBox="0 0 262.3 73">
  <defs>
    <style>
      .cls-1 {
        fill: #1434cb;
      }
    </style>
  </defs>
  <!-- Generator: Adobe Illustrator 28.7.1, SVG Export Plug-In . SVG Version: 1.2.0 Build 142)  -->
  <g>
    <g id="Layer_1">
      <sodipodi:namedview id="namedview3735" bordercolor="#666666" borderopacity="1" fit-margin-bottom="0.5" fit-margin-left="0.5" fit-margin-right="0.5" fit-margin-top="0.5" gridtolerance="10" guidetolerance="10" inkscape:current-layer="Layer_1" inkscape:cx="473.80866" inkscape:cy="-26.853447" inkscape:document-rotation="0" inkscape:pageopacity="0" inkscape:pageshadow="2" inkscape:window-height="705" inkscape:window-maximized="1" inkscape:window-width="1366" inkscape:window-x="-8" inkscape:window-y="-8" inkscape:zoom="0.49497088" objecttolerance="10" pagecolor="#ffffff" showgrid="false">
        <inkscape:grid id="grid3787" empspacing="5" enabled="true" snapvisiblegridlinesonly="true" type="xygrid" visible="true"/>
      </sodipodi:namedview>
      <path id="path3789" class="cls-1" d="M161.5,3.1c-14.2,0-26.9,7.4-26.9,21s22.5,16.7,22.5,24.5-3.8,6.3-10.2,6.3c-9.1,0-16-4.1-16-4.1l-2.9,13.7s7.9,3.5,18.4,3.5c15.6,0,27.8-7.7,27.8-21.6s-22.6-17.5-22.6-24.8,3.1-5.4,9.5-5.4,13.2,3,13.2,3l2.9-13.3c0,0-6.6-2.7-15.6-2.7h0ZM31.5,4.1l-.4,2s5.9,1.1,11.4,3.3c6.9,2.5,7.4,4,8.6,8.5l12.7,49h17.1L107.1,4.1h-17l-16.9,42.7-6.9-36.2c-.6-4.1-3.8-6.5-7.8-6.5,0,0-27.1,0-27.1,0ZM114,4.1l-13.3,62.8h16.2l13.3-62.8h-16.2ZM204.4,4.1c-3.9,0-5.9,2.1-7.5,5.7l-23.8,57h17l3.3-9.5h20.7l2,9.5h15l-13-62.8h-13.7ZM206.6,21.1l5,23.6h-13.5l8.5-23.6h0Z" inkscape:connector-curvature="0"/>
    </g>
  </g>
</svg>