<svg version="1.1" id="Layer_1" xmlns="http://www.w3.org/2000/svg" xmlns:xlink="http://www.w3.org/1999/xlink" x="0px" y="0px" viewBox="0 0 316.4 76.6" style="enable-background:new 0 0 316.4 76.6;" xml:space="preserve">
 <style type="text/css">
  .st0{fill-rule:evenodd;clip-rule:evenodd;fill:#FFFFFF;}
	.st1{fill-rule:evenodd;clip-rule:evenodd;fill:#F3B53B;}
 </style>
 <g>
  <path class="st0" d="M175.8,48.7c0,0.6-0.1,1.3-0.2,1.8c-0.9,2.6-3.3,4.3-6.1,4.3c-2.5,0-4.4-1.4-4.4-4.4c0-4.6,5-5.8,10.8-5.8
		V48.7z M184.8,40.7c0-7.5-3.2-14.2-14.1-14.2c-5.6,0-10.1,1.6-12.5,3l1.8,6.1c2.8-1.6,5.9-2.5,9.1-2.6c5.6,0,6.5,3.1,6.5,5.1v0.5
		c-12.1,0-19.7,4.2-19.7,12.7c0,5.2,3.9,10.1,10.7,10.1c4.1,0,7.6-1.6,9.7-4.3h0.2c0,0,1.4,5.8,9,3.6c-0.4-2.4-0.6-5-0.6-8V40.7z
		 M0,16.2l9.2,37.6c1.5,6.1,4.1,8.4,11.7,6.9l4.9-20c1.2-5,2.1-8.5,2.9-13.6h0.1c0.6,5.1,1.4,8.6,2.4,13.6l3,13.9
		c1.1,4.8,3.9,7.8,11.4,6.1l11.7-44.4h-9.5l-4,19.2c-1.1,5.6-2.1,10-2.8,15.1H41c-0.7-5.1-1.6-9.3-2.7-14.7l-4.1-19.6h-9.9
		l-4.5,19.1c-1.2,5.8-2.4,10.5-3.2,15.4h-0.1c-0.8-4.6-1.8-10.5-2.9-16.1L10,16.2H0 M74.7,48.7c0,0.6,0,1.3-0.2,1.8
		c-0.9,2.6-3.3,4.3-6.1,4.3c-2.5,0-4.4-1.4-4.4-4.4c0-4.6,5-5.8,10.8-5.8V48.7z M83.8,40.7c0-7.5-3.2-14.2-14.1-14.2
		c-5.6,0-10.1,1.6-12.5,3l1.8,6.1c2.8-1.6,5.9-2.5,9.1-2.6c5.6,0,6.5,3.1,6.5,5.1v0.5c-12.1,0-19.7,4.2-19.7,12.7
		c0,5.2,3.9,10.1,10.7,10.1c4.1,0,7.6-1.6,9.7-4.3h0.2c0,0,1.4,5.8,9,3.6c-0.4-2.4-0.6-5-0.6-8V40.7z M97.7,51.2v-35h-9v44.4h9V51.2
		 M212.5,16.3V49c0,4.5,0.8,7.7,2.7,9.6c1.6,1.7,4.2,2.8,7.3,2.8c2.7,0,5.3-0.5,6.5-1l-0.1-7.1c-0.9,0.3-2,0.4-3.4,0.4
		c-3.1,0-4.1-1.9-4.1-6V35.3h7.9v-8.5h-7.9V16.2L212.5,16.3 M189.2,27.3v33.4h9.3V43.6c0-0.9,0.1-1.7,0.2-2.5
		c0.7-3.6,3.4-5.9,7.4-5.9c1.1,0,1.8,0.1,2.7,0.2v-8.8c-0.7-0.1-1.4-0.2-2-0.2c-3.5,0-7.4,2.2-9.1,7.1h-0.2v-6.3L189.2,27.3
		 M103,27.3v33.4h9V41.1c0-0.9,0.1-1.9,0.4-2.7c0.7-2,2.6-4.3,5.5-4.3c3.7,0,5.4,3.1,5.4,7.5v19h9.1V40.8c0-0.9,0.1-2,0.4-2.7
		c0.7-2.4,3-4.1,5.5-4.1c3.7,0,5.5,3,5.5,8.3v18.3h9.1V41c0-10.3-5.3-14.5-11.2-14.5c-2.7,0-4.7,0.7-6.6,1.8c-1.6,1-3,2.4-4.2,4.2
		h-0.1c-1.5-3.7-5.2-6.1-9.2-6c-4-0.2-7.8,1.8-9.7,5.3h-0.1v-4.5L103,27.3">
  </path>
  <path class="st1" d="M278,25.8c1.8,0,3.3-1,3.5-2.1l1.7-20.1c0-2-2.3-3.6-5.2-3.6c-2.9,0-5.2,1.6-5.2,3.6l1.8,20.1
		C274.7,24.9,276.2,25.8,278,25.8 M267.1,32.1c0.9-1.6,0.8-3.3-0.1-4.1l-16.5-11.5c-1.7-1-4.3,0.2-5.7,2.7c-1.5,2.5-1.2,5.4,0.5,6.3
		l18.3,8.5C264.7,34.4,266.3,33.6,267.1,32.1 M288.8,32c0.9,1.6,2.4,2.4,3.6,1.9l18.2-8.5c1.7-1,2-3.8,0.5-6.3
		c-1.5-2.5-4-3.7-5.7-2.7L288.9,28C288,28.8,287.9,30.5,288.8,32 M278,50.8c1.8,0,3.3,1,3.5,2.1l1.7,20.1c0,2-2.3,3.6-5.2,3.6
		c-2.9,0-5.2-1.6-5.2-3.6l1.8-20.1C274.7,51.7,276.2,50.8,278,50.8 M288.8,44.6c0.9-1.6,2.4-2.4,3.6-2l18.2,8.5c1.7,1,2,3.8,0.5,6.3
		c-1.5,2.5-4,3.7-5.7,2.7l-16.5-11.5C288,47.9,287.9,46.1,288.8,44.6 M267.1,44.6c0.9,1.5,0.8,3.3-0.1,4.1l-16.5,11.5
		c-1.7,1-4.3-0.2-5.7-2.7c-1.5-2.5-1.2-5.3,0.5-6.3l18.3-8.5C264.7,42.2,266.3,43,267.1,44.6 M314.5,58.4h0.2c0.2,0,0.4-0.1,0.4-0.2
		c0-0.2-0.1-0.2-0.3-0.2h-0.2V58.4z M314.5,59.3h-0.4v-1.6l0.6,0c0.3,0,0.4,0,0.6,0.1c0.1,0.1,0.2,0.2,0.2,0.3
		c0,0.2-0.1,0.3-0.3,0.4c0.2,0.1,0.3,0.2,0.3,0.4c0,0.3,0.1,0.3,0.1,0.4h-0.4c-0.1-0.1-0.1-0.2-0.1-0.4c0-0.2-0.1-0.2-0.3-0.2h-0.2
		L314.5,59.3L314.5,59.3z M314.7,57.2c-0.7,0-1.2,0.6-1.2,1.3c0,0.7,0.5,1.3,1.2,1.3c0.7,0,1.2-0.6,1.2-1.3
		C316,57.8,315.4,57.2,314.7,57.2L314.7,57.2z M314.7,56.9c0.9,0,1.6,0.7,1.6,1.6c0,0.9-0.7,1.6-1.6,1.6c-0.9,0-1.7-0.7-1.7-1.6
		C313.1,57.6,313.8,56.9,314.7,56.9L314.7,56.9z M314.7,56.9">
  </path>
 </g>
</svg>