<svg viewBox="0 0 278.67 36.34" xmlns="http://www.w3.org/2000/svg"><g fill="#e82127"><path d="m0 .09c.81 3.17 3.55 6.4 7.32 7.21h11.37l.58.23v28.69h7.1v-28.69l.65-.23h11.38c3.8-.98 6.49-4.05 7.28-7.21v-.07h-45.68z"/><path d="m70.27 36.3h27.01c3.76-.75 6.55-4.06 7.33-7.26h-41.68c.78 3.21 3.61 6.52 7.33 7.26"/><path d="m70.27 21.59h27.01c3.76-.74 6.55-4.05 7.33-7.26h-41.68c.78 3.21 3.61 6.52 7.33 7.26"/><path d="m70.27 7.27h27.01c3.76-.75 6.55-4.06 7.33-7.27h-41.68c.78 3.21 3.61 6.52 7.33 7.27"/><path d="m131.87 7.2h24.95c3.76-1.09 6.92-3.96 7.69-7.14h-39.64v21.42h32.44v7.52l-25.45.02c-3.99 1.11-7.37 3.79-9.06 7.33l2.06-.04h39.41v-21.95h-32.42v-7.16"/><path d="m216.8 36.31c3.54-1.5 5.45-4.1 6.18-7.14h-31.52l.02-29.12-7.07.02v36.24h32.38"/><path d="m244.32 7.29h27.02c3.75-.75 6.54-4.06 7.33-7.26h-41.68c.78 3.2 3.61 6.52 7.33 7.26"/><path d="m238.08 14.38v21.91h7.03v-14.59h25.58v14.59h7.02v-21.87l-39.62-.04"/></g></svg>