<?xml version="1.0" encoding="UTF-8"?>
<svg width="512pt" height="512pt" version="1.1" viewBox="0 0 512 512" xmlns="http://www.w3.org/2000/svg">
 <path d="m485.95 285.76c-0.035156-0.007813-3.1836-0.875-5.6211-6.4961-2.2656-5.2422-2.7852-17.523-2.8711-20.176l2.1367-0.53906-2.4648-7.2148 1.5469-11.359-0.71875-0.011718c-12.922-0.16016-23.625-5.9141-23.816-6.0078-59.625-22.566-90.949-31.762-161.76-31.762-19.922 0-38.328 2.7812-54.93 7.0586-38.207 6.7344-97.227 41.422-98.34 42.082-41.523 0.57812-72.098 11.043-91.102 20.309l-0.16797 0.019531 0.003906 0.0625c-13.141 6.4219-20.797 12.227-22.547 13.633-0.63672 0.51172-0.98047 1.2656-0.94531 2.0781v0.003906c0.085937 1.7969 0.78125 4.9961 1.4531 8.0938 0.49609 2.2773 1.0039 4.6328 1.2344 6.2656 0.39062 2.8086-0.55469 5.7109-1.1484 7.1914-0.43359 1.0781-0.21094 2.3047 0.58594 3.2031 1.75 1.9883 2.8633 4.5977 3.3086 5.7695-2.2852 0.71094-3.6367 1.6562-4.0195 2.8164-0.28516 0.86328 0.054688 1.6211 0.27344 1.8906 0.003906 0.003906 0.011719 0.007813 0.015625 0.015625l-0.003906 0.003906c0.003906 0.003906 0.015624 0.007813 0.019531 0.015625 4.0078 5.7969 32.441 9.1758 33.652 9.3164l1.0938 0.12891-0.097656-0.22656 9.4062-1.0938c6.2695 9.3633 16.934 15.543 29.023 15.543 13.207 0 24.723-7.375 30.652-18.219 1.6641 0.15625 8.1641 0.84766 12.668 2.418 0.046875 1.0781 0.066406 1.7344 0.070313 1.7695l0.015625 0.625h204.42c8.6445 0 12.055 2.0117 12.09 2.0312l0.55078 0.33594 0.33594-0.55078c0.76953-1.2812 1.1406-2.3984 1.3867-3.3867 0.84375-0.16016 6.1641-1.1289 11.547-1.1797 6.2109 9.6953 17.055 16.156 29.398 16.156 13.441 0 25.109-7.6484 30.941-18.809 1.3555-0.035156 6.6602-0.039062 11.207 1.4727v0.16797h0.64453c26.766 0 29.727-5.4062 30.035-6.8789 9.5703-9.6641 11.246-34.828 11.316-35.902l0.023437-0.53125zm-428.99-8.1914c-4.3594 2.4648-18.98 3.918-24.77 4.4102 3.7578-2.4961 9.082-5.6797 15.957-9.0586l20.621-1.9609c-3.0664 1.7031-8.1211 4.5234-11.809 6.6094zm42.203 67.523c-18.547 0-33.629-15.086-33.629-33.633 0-18.547 15.086-33.633 33.629-33.633 18.547 0 33.637 15.086 33.637 33.633 0 18.543-15.09 33.633-33.637 33.633zm310.87-116.62c-2.4961 1.9961-11.621 8-32.77 9.8633-0.51172 0.046875-1.1406 0.097657-1.7305 0.14844l2.3125-19.953c10.711 2.5547 21.621 5.8008 32.188 9.9414zm-220.67 9.9844c-1.1484-0.11719-2.0898-0.15234-2.8828-0.14844 19.949-12.145 55.582-28.637 102.19-29.012-2.2109 5.9492-7.3555 19.934-12.895 36.059-27.293 1.7227-55.121 3.3789-77.234 4.5234 0.61719-1.0352 0.38281-2.2148 0.375-2.2539 0 0-0.89844-4.2617-1.2695-5.7812-0.44922-1.8359-2.2266-2.4336-2.2734-2.4492-0.125-0.042969-1.3203-0.44922-6.0078-0.9375zm82.883 18.473-0.10156 0.76562c-0.55469 4.1641-6.4492 4.4492-6.6992 4.4609l-17.746 0.82031-0.10156-0.55078c-0.14844-0.85547 0.10938-1.3906 0.35547-1.6953 0.54688-0.66797 1.4102-0.71094 1.5039-0.71094 0.42188-0.023437 10.715-0.63281 13.016-0.63281 1.8711 0 2.7188-1.6562 2.7539-1.7305l0.16406-0.32812zm-76.207 50.902c33.711-2.0703 60.016-3.4922 80.555-4.4609 0.011719 0.71094 0.023438 1.3984 0.035156 2.0703-29.078 1.2148-59.402 1.9648-80.59 2.3906zm81.871-2.4375c-0.011718-0.66797-0.023437-1.3789-0.03125-2.082 32.582-1.5273 50.371-1.8984 59.926-1.8984 0.92187 0 1.7617 0.003906 2.5352 0.011719-16.172 1.6758-38.84 2.9727-62.43 3.9688zm14.863-61.121c2.418-15.348 5.4766-29.402 6.75-35.023 12.262 0.078125 43.555 1.1406 77.074 8.9844l-2.3594 20.359c-14.004 1.1484-46.055 3.3867-81.465 5.6797zm61.047 14.004-0.10156-0.55469c-0.14844-0.85547 0.10938-1.3945 0.35547-1.6953 0.54688-0.66406 1.4062-0.70703 1.5039-0.71094 0.41406-0.023438 10.715-0.63281 13.016-0.63281 1.8711 0 2.7188-1.6562 2.7539-1.7305l0.16406-0.32812 6.8438-0.39453-0.10156 0.76563c-0.55469 4.1641-6.4492 4.4492-6.6992 4.457zm48.477 86.82c-18.547 0-33.637-15.086-33.637-33.633 0-18.547 15.09-33.633 33.637-33.633s33.629 15.086 33.629 33.633c0 18.543-15.086 33.633-33.629 33.633zm65.047-83.68c-5.5352-1.0781-17.863-10.699-22.055-14.07 8.6758 0.15625 17.305 0.52734 25.629 1.1992 0.035156 0.003906 3.582 0.30078 4.9297 2.7383l-0.007812 0.054688-0.22656 0.007812c-0.82812-0.14062-2.3867 0.0625-2.9062 1.9414-0.54688 1.9336-0.51562 6.0664-0.51562 6.2422l0.003906 0.61328 0.61328 0.019531c0.91016 0.03125 1.6602 0.039063 2.2617 0.039063 0.50781 0 0.85547-0.007813 1.1484-0.015625 0.023438 0.54688 0.054688 1.2188 0.09375 1.9766-1.0781 0.12109-3.9062 0.24219-8.9688-0.74609z"/>
 <path d="m402.3 282.86c-15.77 0-28.602 12.828-28.602 28.598 0 15.766 12.828 28.598 28.602 28.598 15.766 0 28.594-12.828 28.594-28.598 0-15.77-12.832-28.598-28.594-28.598z"/>
 <path d="m99.164 282.86c-15.766 0-28.594 12.828-28.594 28.598 0 15.766 12.828 28.598 28.594 28.598 15.77 0 28.602-12.828 28.602-28.598 0-15.77-12.832-28.598-28.602-28.598z"/>
</svg>
